{"asset":{"generator":"Khronos glTF Blender I/O v5.1.18","version":"2.0"},"scene":0,"scenes":[{"name":"Scene","nodes":[67]}],"nodes":[{"name":"head_leaf","rotation":[-0.0470699705183506,1.8538033330628423e-8,-1.0350548862447795e-8,0.9988916516304016],"scale":[1,0.9999999403953552,0.9999999403953552],"translation":[3.232503884519327e-15,0.06980979442596436,5.587935447692871e-9]},{"children":[0],"name":"head","rotation":[-0.3003634810447693,-6.112897210641677e-8,-7.97243941974557e-8,0.9538248181343079],"scale":[1,0.9999999403953552,1],"translation":[-9.999046065418092e-16,0.09785595536231995,1.3969838619232178e-8]},{"children":[1],"name":"neck_01","rotation":[0.45430970191955566,-2.2609123462302705e-8,1.612318385468825e-7,0.8908438086509705],"translation":[-1.2107699565166996e-10,0.15682852268218994,0.0003183819353580475]},{"name":"index_04_leaf_l","rotation":[-3.0285141860986187e-7,-2.5560151772907602e-9,0.05475423112511635,0.998499870300293],"translation":[1.8377704691374674e-8,0.022944100201129913,-2.2657826548311277e-7]},{"children":[3],"name":"index_03_l","rotation":[-0.0005649605882354081,0.016698751598596573,-0.03381962701678276,0.9992883205413818],"scale":[1,1,0.9999999403953552],"translation":[-2.7939677238464355e-8,0.032772596925497055,8.731149137020111e-9]},{"children":[4],"name":"index_02_l","rotation":[-3.763015286040172e-7,-0.016708269715309143,-0.000022412978069041856,0.999860405921936],"translation":[4.666617314796895e-9,0.03861775994300842,4.926330632315512e-8]},{"children":[5],"name":"index_01_l","rotation":[-0.016890516504645348,0.7069076895713806,-0.016890576109290123,0.7069023847579956],"scale":[0.9999998211860657,0.9999996423721313,0.9999999403953552],"translation":[-0.011139241978526115,0.058798715472221375,0.030511610209941864]},{"name":"middle_04_leaf_l","rotation":[0.0002643368497956544,0.018623504787683487,0.014194236136972904,0.9997257590293884],"scale":[0.9999999403953552,1,0.9999999403953552],"translation":[-3.725290298461914e-9,0.03126870095729828,-8.614733815193176e-9]},{"children":[7],"name":"middle_03_l","rotation":[-0.0003074152336921543,-0.018622836098074913,-0.016507430002093315,0.9996902942657471],"scale":[0.9999999403953552,0.9999999403953552,0.9999999403953552],"translation":[-1.5953446563798934e-8,0.020577257499098778,-3.718298557942035e-8]},{"children":[8],"name":"middle_02_l","rotation":[-2.5438495754315227e-7,3.7885236281454127e-8,0.0461399182677269,0.9989349842071533],"scale":[1,1.0000001192092896,1],"translation":[6.847585609648377e-9,0.032308612018823624,1.975491557004716e-7]},{"children":[9],"name":"middle_01_l","rotation":[-0.016059601679444313,0.7069271206855774,-0.016059640794992447,0.7069216370582581],"translation":[-0.013539684936404228,0.05385398864746094,0.009554007090628147]},{"name":"pinky_04_leaf_l","rotation":[-0.0011488866293802857,0.01819532737135887,-0.0630258098244667,0.9978453516960144],"scale":[1,1,0.9999999403953552],"translation":[-1.4901161193847656e-8,0.035544347018003464,2.7776695787906647e-7]},{"children":[11],"name":"pinky_03_l","rotation":[-0.000860892585478723,-0.01821122132241726,-0.04722694307565689,0.9987177848815918],"scale":[0.9999999403953552,1,1],"translation":[1.3757471606368199e-8,0.02701750211417675,1.2726252407446736e-7]},{"children":[12],"name":"pinky_02_l","rotation":[-4.0197093653659977e-7,-8.757508140888604e-8,0.06959805637598038,0.9975751042366028],"scale":[1.0000001192092896,1.0000001192092896,1],"translation":[1.5475961845368147e-8,0.037459444254636765,2.034612975876371e-7]},{"children":[13],"name":"pinky_01_l","rotation":[0.0266624316573143,0.7066067457199097,0.026662543416023254,0.706601083278656],"scale":[1,1.0000001192092896,1],"translation":[-0.011539914645254612,0.06091819331049919,-0.031019972637295723]},{"name":"ring_04_leaf_l","rotation":[-0.0004447074607014656,0.016282202675938606,-0.02730794996023178,0.9994943737983704],"scale":[1,1,0.9999999403953552],"translation":[-1.4901161193847656e-8,0.03855044022202492,7.241033017635345e-8]},{"children":[15],"name":"ring_03_l","rotation":[0.0001506262633483857,-0.016287580132484436,0.009249437600374222,0.999824583530426],"translation":[1.4654688129667193e-8,0.032177068293094635,-1.0974608244396222e-7]},{"children":[16],"name":"ring_02_l","rotation":[1.712453645552614e-8,-8.162304254710762e-8,-0.004251986742019653,0.9999909996986389],"scale":[0.9999999403953552,0.9999999403953552,1],"translation":[2.3362645151792094e-8,0.026073435321450233,-6.417357667487522e-8]},{"children":[17],"name":"ring_01_l","rotation":[0.027866480872035027,0.7065601944923401,0.027866581454873085,0.7065547704696655],"scale":[0.9999999403953552,0.9999997019767761,1],"translation":[-0.013239322230219841,0.05918332561850548,-0.011985499411821365]},{"name":"thumb_04_leaf_l","rotation":[-0.025687307119369507,0.004788146819919348,-0.02354971319437027,0.9993811249732971],"translation":[1.93773303180933e-7,0.017822982743382454,3.073364496231079e-8]},{"children":[19],"name":"thumb_03_l","rotation":[-0.0070724450051784515,0.04199160262942314,-0.009000695310533047,0.9990524053573608],"scale":[1,1.0000001192092896,1.0000001192092896],"translation":[-1.0640360414981842e-7,0.013870542868971825,6.332993507385254e-8]},{"children":[20],"name":"thumb_02_l","rotation":[0.05996089428663254,0.03770148754119873,0.04304805397987366,0.996559202671051],"scale":[0.9999999403953552,0.9999999403953552,0.9999999403953552],"translation":[-5.8673322200775146e-8,0.031837064772844315,-5.587935447692871e-9]},{"children":[21],"name":"thumb_01_l","rotation":[0.020276295021176338,0.9728742837905884,0.18947649002075195,0.1311608999967575],"translation":[0.008856821805238724,0.0234798863530159,0.03846633806824684]},{"children":[6,10,14,18,22],"name":"hand_l","rotation":[0.03605450317263603,-0.0003936553839594126,-0.009733915328979492,0.999302327632904],"scale":[0.9999999403953552,1.0000001192092896,1],"translation":[1.0477378964424133e-7,0.2399730086326599,1.042644726112485e-8]},{"children":[23],"name":"lowerarm_l","rotation":[-0.024069510400295258,0.00034855480771511793,0.015537803061306477,0.9995895028114319],"scale":[0.9999998807907104,0.9999998807907104,0.9999998807907104],"translation":[1.1068914318457246e-7,0.23462191224098206,2.3865140974521637e-9]},{"children":[24],"name":"upperarm_l","rotation":[0.20089100301265717,0.651897132396698,-0.29644325375556946,0.6684267520904541],"translation":[-2.0489096641540527e-8,0.16656844317913055,2.8870999813079834e-8]},{"children":[25],"name":"clavicle_l","rotation":[-0.5188062191009521,-0.27483901381492615,-0.29746490716934204,0.7528733015060425],"scale":[1,0.9999999403953552,1],"translation":[0.018799960613250732,0.07788868993520737,0.09826220571994781]},{"name":"index_04_leaf_r","rotation":[-3.0346231483235897e-7,-1.1416532164076898e-9,-0.05475424975156784,0.998499870300293],"scale":[0.9999999403953552,1,1],"translation":[-7.921244105091318e-9,0.022944116964936256,-1.0767411140477634e-7]},{"children":[27],"name":"index_03_r","rotation":[-0.0005649604136124253,-0.016698747873306274,0.03381963446736336,0.9992883205413818],"scale":[1,1,0.9999999403953552],"translation":[2.9802322387695312e-8,0.03277255594730377,9.080395102500916e-9]},{"children":[28],"name":"index_02_r","rotation":[-3.7676579722756287e-7,0.016708262264728546,0.000022437518055085093,0.999860405921936],"scale":[1,0.9999999403953552,1],"translation":[-2.2228050511330366e-9,0.03861783444881439,4.9190191475645406e-8]},{"children":[29],"name":"index_01_r","rotation":[-0.016890501603484154,-0.7069076895713806,0.01689055748283863,0.7069023847579956],"scale":[0.9999998211860657,0.9999997615814209,1],"translation":[0.011139241978526115,0.058798667043447495,0.030511602759361267]},{"name":"middle_04_leaf_r","rotation":[0.0002643366460688412,-0.018623504787683487,-0.01419423334300518,0.9997257590293884],"scale":[0.9999999403953552,0.9999999403953552,0.9999998807907104],"translation":[-1.862645149230957e-9,0.03126877173781395,-6.810296326875687e-9]},{"children":[31],"name":"middle_03_r","rotation":[-0.0003074148844461888,0.018622836098074913,0.016507431864738464,0.9996902942657471],"scale":[0.9999999403953552,0.9999999403953552,1],"translation":[1.5954810805851594e-8,0.020577210932970047,-1.5444356904481538e-7]},{"children":[32],"name":"middle_02_r","rotation":[-2.5490675170658506e-7,-4.782602758268695e-8,-0.0461399182677269,0.9989349842071533],"translation":[-9.958512237062678e-9,0.03230862319469452,1.9748121360407822e-7]},{"children":[33],"name":"middle_01_r","rotation":[-0.016059599816799164,-0.7069271206855774,0.016059642657637596,0.7069216370582581],"scale":[0.9999999403953552,0.9999998807907104,1],"translation":[0.013539684936404228,0.05385388061404228,0.009554008021950722]},{"name":"pinky_04_leaf_r","rotation":[-0.0011488852323964238,-0.018195318058133125,0.06302579492330551,0.9978453516960144],"scale":[0.9999999403953552,0.9999999403953552,0.9999998807907104],"translation":[1.4901161193847656e-8,0.03554443269968033,2.838205546140671e-7]},{"children":[35],"name":"pinky_03_r","rotation":[-0.0008608914213255048,0.018211225047707558,0.04722694680094719,0.9987177848815918],"scale":[0.9999999403953552,1,0.9999999403953552],"translation":[-6.305072020040825e-9,0.027017414569854736,2.5405768155906117e-7]},{"children":[36],"name":"pinky_02_r","rotation":[-4.0309839732799446e-7,7.253186140587786e-8,-0.06959804147481918,0.9975751638412476],"translation":[-9.503310138825327e-9,0.037459347397089005,8.418993502345984e-8]},{"children":[37],"name":"pinky_01_r","rotation":[0.026662439107894897,-0.7066067457199097,-0.02666255086660385,0.706601083278656],"scale":[0.9999999403953552,0.9999999403953552,1],"translation":[0.011539914645254612,0.06091814115643501,-0.031019950285553932]},{"name":"ring_04_leaf_r","rotation":[-0.0004447069368325174,-0.016282200813293457,0.027307957410812378,0.9994943737983704],"translation":[-3.725290298461914e-9,0.038550395518541336,7.660128176212311e-8]},{"children":[39],"name":"ring_03_r","rotation":[0.00015062597231008112,0.016287576407194138,-0.009249433875083923,0.9998245239257812],"scale":[1,1,1.0000001192092896],"translation":[-1.4652869140263647e-8,0.032177142798900604,1.2269168792045093e-8]},{"children":[40],"name":"ring_02_r","rotation":[1.7104936134160198e-8,7.102082832943779e-8,0.0042519900016486645,0.9999909996986389],"scale":[0.9999999403953552,1,1],"translation":[-2.370416041230783e-8,0.026073448359966278,-6.423772447305964e-8]},{"children":[41],"name":"ring_01_r","rotation":[0.027866484597325325,-0.7065601944923401,-0.027866585180163383,0.7065547704696655],"scale":[0.9999998807907104,0.9999996423721313,0.9999999403953552],"translation":[0.013239322230219841,0.05918321758508682,-0.01198549848049879]},{"name":"thumb_04_leaf_r","rotation":[-0.02568732015788555,-0.004788153804838657,0.023549703881144524,0.9993811249732971],"scale":[1,0.9999999403953552,0.9999998807907104],"translation":[-1.6426201909780502e-7,0.0178231168538332,-4.6566128730773926e-9]},{"children":[43],"name":"thumb_03_r","rotation":[-0.007072470150887966,-0.04199159890413284,0.009000705555081367,0.9990524053573608],"scale":[1.0000001192092896,1,1],"translation":[2.0954757928848267e-9,0.013870466500520706,-1.0244548320770264e-8]},{"children":[44],"name":"thumb_02_r","rotation":[0.059960898011922836,-0.03770146518945694,-0.04304804652929306,0.996559202671051],"scale":[0.9999999403953552,0.9999998211860657,0.9999999403953552],"translation":[-5.634501576423645e-8,0.031837087124586105,9.313225746154785e-9]},{"children":[45],"name":"thumb_01_r","rotation":[0.020276296883821487,-0.9728742837905884,-0.18947651982307434,0.1311608850955963],"scale":[1,0.9999998211860657,0.9999998211860657],"translation":[-0.008856821805238724,0.023479783907532692,0.038466326892375946]},{"children":[30,34,38,42,46],"name":"hand_r","rotation":[0.03605451062321663,0.0003936561697628349,0.009733915328979492,0.999302327632904],"scale":[0.9999998807907104,1,1],"translation":[-1.019798219203949e-7,0.2399728000164032,-5.0131347961723804e-9]},{"children":[47],"name":"lowerarm_r","rotation":[-0.024069534614682198,-0.0003485524212010205,-0.015537786297500134,0.9995895028114319],"scale":[0.9999998807907104,0.9999998807907104,0.9999998807907104],"translation":[-5.9626472648233175e-9,0.23462195694446564,9.313225746154785e-10]},{"children":[48],"name":"upperarm_r","rotation":[0.20089109241962433,-0.6518971920013428,0.29644331336021423,0.6684266924858093],"scale":[1.0000001192092896,1.0000003576278687,1.0000001192092896],"translation":[1.1175870895385742e-8,0.16656847298145294,-8.568167686462402e-8]},{"children":[49],"name":"clavicle_r","rotation":[-0.5188063979148865,0.27483871579170227,0.2974647283554077,0.752873420715332],"scale":[1,1.0000001192092896,1],"translation":[-0.0188000351190567,0.07788868993520737,0.09826219081878662]},{"children":[2,26,50],"name":"spine_03","rotation":[-0.10484859347343445,1.0279887874276028e-7,-2.9033094151031946e-8,0.9944881796836853],"scale":[1,0.9999999403953552,0.9999999403953552],"translation":[6.28670225144394e-15,0.12406379729509354,-1.5832483768463135e-8]},{"children":[51],"name":"spine_02","rotation":[-0.08430597186088562,-6.248514949902528e-8,-1.991683440394354e-8,0.9964399337768555],"scale":[1,0.9999998807907104,1],"translation":[-2.3049333505741933e-15,0.11502542346715927,-2.7939677238464355e-9]},{"children":[52],"name":"spine_01","rotation":[-0.03918690234422684,1.0407641326537487e-7,-7.633473408930058e-9,0.9992319345474243],"scale":[1,0.9999999403953552,0.9999999403953552],"translation":[7.090144342133693e-16,0.12399429827928543,-2.7939677238464355e-8]},{"name":"ball_leaf_l","rotation":[0.027500785887241364,3.9917559035984596e-8,9.596472061446093e-9,0.9996218085289001],"scale":[1,0.9999999403953552,0.9999999403953552],"translation":[-2.809531096659157e-8,0.08628758043050766,2.2214159400846256e-9]},{"children":[54],"name":"ball_l","rotation":[0.00011110810737591237,0.9767427444458008,-0.21441394090652466,0.0005056422669440508],"scale":[1,1.0000001192092896,1.0000001192092896],"translation":[-1.6863850760273635e-8,0.18140795826911926,3.14321368932724e-9]},{"children":[55],"name":"foot_l","rotation":[-0.5864481329917908,-0.008365524932742119,0.012051542289555073,0.8098539710044861],"scale":[0.9999999403953552,0.9999999403953552,0.9999999403953552],"translation":[2.8492650017142296e-8,0.433392733335495,1.5381374396383762e-8]},{"children":[56],"name":"calf_l","rotation":[0.10397245734930038,0.002598955063149333,-0.002997949020937085,0.9945722818374634],"scale":[1,1.0000001192092896,1.0000001192092896],"translation":[-1.2170858099125326e-8,0.34416356682777405,2.650267560966313e-9]},{"children":[57],"name":"thigh_l","rotation":[0.9913012981414795,0.012057293206453323,-0.0014818203635513783,0.13105031847953796],"scale":[0.9999999403953552,0.9999999403953552,0.9999992251396179],"translation":[0.1021384447813034,0.019184477627277374,0.01604526676237583]},{"name":"ball_leaf_r","rotation":[0.027500741183757782,-3.985935492778481e-8,-9.598058348103677e-9,0.9996218085289001],"scale":[1,0.9999998807907104,0.9999998807907104],"translation":[3.554804806071843e-8,0.08628755807876587,1.0303544684120425e-9]},{"children":[59],"name":"ball_r","rotation":[0.00011110725608887151,-0.9767427444458008,0.21441400051116943,0.0005056422669440508],"scale":[1,0.9999999403953552,1],"translation":[1.7009369912557304e-8,0.18140792846679688,1.8335413187742233e-8]},{"children":[60],"name":"foot_r","rotation":[-0.5864480137825012,0.008365522138774395,-0.012051540426909924,0.8098540306091309],"scale":[0.9999999403953552,1,1],"translation":[-2.8638169169425964e-8,0.433392733335495,9.309587767347693e-9]},{"children":[61],"name":"calf_r","rotation":[0.1039724349975586,-0.002598955761641264,0.0029979527462273836,0.9945722818374634],"scale":[1,1.0000001192092896,1.0000001192092896],"translation":[7.484231900889426e-9,0.3441636264324188,1.2951204553246498e-9]},{"children":[62],"name":"thigh_r","rotation":[0.9913012981414795,-0.012057301588356495,0.0014819179195910692,0.13105031847953796],"scale":[0.9999999403953552,0.9999999403953552,0.9999993443489075],"translation":[-0.1021384447813034,0.019184477627277374,0.01604524813592434]},{"children":[53,58,63],"name":"pelvis","rotation":[0.7776134014129639,2.8494698156578124e-8,3.5241541240793595e-8,0.6287427544593811],"translation":[-3.1139009018766814e-16,0.05010020732879639,0.8540651798248291]},{"children":[64],"name":"root","rotation":[-0.7071067690849304,1.5197109121101014e-16,1.5197109121101014e-16,0.7071067690849304]},{"mesh":0,"name":"Character_31_Female","skin":0},{"children":[66,65],"name":"Armature_31_F"}],"materials":[{"name":"Horizon Browser Survivor","pbrMetallicRoughness":{"baseColorFactor":[0.3,0.28,0.27,1],"metallicFactor":0,"roughnessFactor":0.78},"doubleSided":false}],"meshes":[{"name":"Character_31_Female","primitives":[{"attributes":{"POSITION":0,"NORMAL":1,"TEXCOORD_0":2,"JOINTS_0":3,"WEIGHTS_0":4},"indices":5,"material":0}]}],"skins":[{"inverseBindMatrices":6,"joints":[65,64,53,52,51,2,1,0,26,25,24,23,6,5,4,3,10,9,8,7,14,13,12,11,18,17,16,15,22,21,20,19,50,49,48,47,30,29,28,27,34,33,32,31,38,37,36,35,42,41,40,39,46,45,44,43,58,57,56,55,54,63,62,61,60,59],"name":"Armature_31_F"}],"accessors":[{"bufferView":0,"componentType":5126,"count":994,"max":[0.7951764464378357,1.6568093299865723,0.15292829275131226],"min":[-0.7749135494232178,-0.003881603479385376,-0.15832406282424927],"type":"VEC3"},{"bufferView":1,"componentType":5126,"count":994,"type":"VEC3"},{"bufferView":2,"componentType":5126,"count":994,"type":"VEC2"},{"bufferView":3,"componentType":5121,"count":994,"type":"VEC4"},{"bufferView":4,"componentType":5126,"count":994,"type":"VEC4"},{"bufferView":5,"componentType":5123,"count":3633,"type":"SCALAR"},{"bufferView":7,"componentType":5126,"count":66,"type":"MAT4"}],"bufferViews":[{"buffer":0,"byteLength":11928,"byteOffset":0,"target":34962},{"buffer":0,"byteLength":11928,"byteOffset":11928,"target":34962},{"buffer":0,"byteLength":7952,"byteOffset":23856,"target":34962},{"buffer":0,"byteLength":3976,"byteOffset":31808,"target":34962},{"buffer":0,"byteLength":15904,"byteOffset":35784,"target":34962},{"buffer":0,"byteLength":7266,"byteOffset":51688,"target":34963},{"buffer":0,"byteLength":339721,"byteOffset":58956},{"buffer":0,"byteLength":4224,"byteOffset":398680}],"buffers":[{"byteLength":402904,"uri":"data:application/octet-stream;base64,"}],"extras":{"horizon_runtime_variant":true,"source_file":"female_31.glb","license":"CC0","purpose":"same-origin browser skeletal survivor/hands"}}