{"asset":{"generator":"Khronos glTF Blender I/O v5.1.18","version":"2.0"},"scene":0,"scenes":[{"name":"Scene","nodes":[67]}],"nodes":[{"name":"head_leaf","rotation":[-0.0470699779689312,1.85380368833421e-8,-1.0350537316128339e-8,0.9988915920257568],"scale":[1,0.9999998211860657,0.9999998807907104],"translation":[1.5146490696870893e-15,0.0698096752166748,5.587935447692871e-9]},{"children":[0],"name":"head","rotation":[-0.22051632404327393,-6.251060113982021e-8,-5.8530883251251e-8,0.9753833413124084],"translation":[-2.5796110581823017e-14,0.12394125014543533,2.0489096641540527e-8]},{"children":[1],"name":"neck_01","rotation":[0.354337215423584,-2.373279883727264e-8,1.257521944353357e-7,0.9351177215576172],"scale":[1,1.0000001192092896,1.0000001192092896],"translation":[1.1295857998971925e-10,0.1962379813194275,-0.0002970695495605469]},{"name":"index_04_leaf_l","rotation":[-2.9797135425724264e-7,-2.6546647102776433e-9,0.054754242300987244,0.998499870300293],"scale":[1,1,0.9999999403953552],"translation":[2.863089321181178e-9,0.022944077849388123,1.638443336560158e-8]},{"children":[3],"name":"index_03_l","rotation":[1.841066250563017e-7,1.6087200460646045e-9,-0.03382434695959091,0.9994277954101562],"scale":[0.9999999403953552,0.9999999403953552,0.9999999403953552],"translation":[-3.345940058352426e-8,0.032772548496723175,1.0532104965932376e-8]},{"children":[4],"name":"index_02_l","rotation":[2.634554352454188e-9,-5.174956019260435e-9,-0.00002238992601633072,1],"translation":[3.800778358709067e-9,0.038617730140686035,1.5414897802656924e-8]},{"children":[5],"name":"index_01_l","rotation":[-0.02332102321088314,0.7067247629165649,-0.02332109957933426,0.7067195177078247],"scale":[0.9999999403953552,0.9999998211860657,0.9999999403953552],"translation":[0.003783697262406349,0.08978894352912903,0.03540046140551567]},{"name":"middle_04_leaf_l","rotation":[-8.058600542426575e-8,-6.023327947524137e-10,0.014196746982634068,0.9998992681503296],"scale":[0.9999999403953552,0.9999999403953552,1],"translation":[-4.320099833421409e-10,0.03126887232065201,-1.3574666013482783e-7]},{"children":[7],"name":"middle_03_l","rotation":[9.371680675940297e-8,7.015917846686648e-10,-0.01651035062968731,0.9998637437820435],"scale":[0.9999999403953552,0.9999999403953552,1],"translation":[-2.2784661268815398e-8,0.020577192306518555,-2.005764088153228e-7]},{"children":[8],"name":"middle_02_l","rotation":[-2.646797554461955e-7,-7.25029503101382e-9,0.0461399145424366,0.9989349842071533],"scale":[1,0.9999999403953552,1],"translation":[4.907633410766721e-9,0.032308537513017654,1.538454057481431e-7]},{"children":[9],"name":"middle_01_l","rotation":[-0.02249028906226158,0.7067517638206482,-0.022490378469228745,0.7067462801933289],"scale":[0.9999999403953552,0.9999997019767761,0.9999999403953552],"translation":[0.0013832497643306851,0.08280830830335617,0.012024564668536186]},{"name":"pinky_04_leaf_l","rotation":[3.5768943007497e-7,3.6073848352913274e-9,-0.0630362406373024,0.9980112314224243],"translation":[-4.2518877307884395e-9,0.03554440662264824,1.7935781215783209e-7]},{"children":[11],"name":"pinky_03_l","rotation":[2.677186046184943e-7,2.8959796782856984e-9,-0.04723476618528366,0.998883843421936],"translation":[-4.2509782360866666e-9,0.02701754681766033,1.900941128951672e-7]},{"children":[12],"name":"pinky_02_l","rotation":[-4.037731571315817e-7,-1.3156157763205556e-7,0.06959804892539978,0.9975751042366028],"scale":[1,0.9999998807907104,1],"translation":[-1.403896021656692e-8,0.03745943307876587,2.4948164423221897e-7]},{"children":[13],"name":"pinky_01_l","rotation":[0.02023288421332836,0.7068200707435608,0.02023295871913433,0.7068144083023071],"scale":[0.9999998807907104,0.9999998211860657,1],"translation":[0.0033830013126134872,0.08637534081935883,-0.03721657022833824]},{"name":"ring_04_leaf_l","rotation":[1.4845687701381394e-7,1.6246282097398534e-9,-0.02731156349182129,0.9996269941329956],"scale":[1,0.9999999403953552,1],"translation":[-4.4292391976341605e-9,0.03855050355195999,-1.2415361538842262e-7]},{"children":[15],"name":"ring_03_l","rotation":[-5.027377270039324e-8,-5.569596450705205e-10,0.00925066415220499,0.9999572038650513],"translation":[-4.4301486923359334e-9,0.03217700123786926,-2.1737849920100416e-7]},{"children":[16],"name":"ring_02_l","rotation":[2.317757541447918e-8,-1.2760808942857693e-7,-0.004251997917890549,0.9999909400939941],"scale":[0.9999998807907104,0.9999999403953552,1],"translation":[1.6507328837178648e-9,0.026073314249515533,-2.53831103691482e-7]},{"children":[17],"name":"ring_01_l","rotation":[0.02143731154501438,0.7067844867706299,0.0214373879134655,0.7067790031433105],"scale":[0.9999998807907104,0.9999996423721313,0.9999998807907104],"translation":[0.0016835976857692003,0.0869457945227623,-0.01628718338906765]},{"name":"thumb_04_leaf_l","rotation":[-0.010251614265143871,0.007474777288734913,0.09588977694511414,0.9953111410140991],"scale":[1,1,0.9999999403953552],"translation":[1.334119588136673e-7,0.01782309263944626,-1.862645149230957e-9]},{"children":[19],"name":"thumb_03_l","rotation":[-0.007072425447404385,0.04199174791574478,-0.00900071207433939,0.9990524053573608],"scale":[1.0000001192092896,1.000000238418579,1.0000001192092896],"translation":[-1.3085082173347473e-7,0.013870497234165668,8.195638656616211e-8]},{"children":[20],"name":"thumb_02_l","rotation":[0.05996080860495567,0.037701502442359924,0.04304807633161545,0.996559202671051],"scale":[0.9999999403953552,0.9999999403953552,0.9999999403953552],"translation":[-1.257285475730896e-7,0.03183702379465103,1.4901161193847656e-8]},{"children":[21],"name":"thumb_01_l","rotation":[0.01908218115568161,0.9745578169822693,0.18061767518520355,0.13133996725082397],"scale":[1,1.0000003576278687,0.9999998807907104],"translation":[0.017274972051382065,0.024328650906682014,0.03643427789211273]},{"children":[6,10,14,18,22],"name":"hand_l","rotation":[0.022714562714099884,-0.00016294827219098806,0.0077081117779016495,0.9997122883796692],"scale":[0.9999999403953552,1,1],"translation":[1.1582596926018596e-7,0.34136563539505005,-2.3283064365386963e-10]},{"children":[23],"name":"lowerarm_l","rotation":[0.022539818659424782,0.0004640275437850505,-0.005170763004571199,0.9997324347496033],"scale":[0.9999999403953552,1,1],"translation":[3.671266313176602e-8,0.31295526027679443,-7.07223080098629e-9]},{"children":[24],"name":"upperarm_l","rotation":[0.22331498563289642,0.6720605492591858,-0.24341055750846863,0.6627340316772461],"scale":[0.9999998807907104,0.9999998807907104,0.9999998211860657],"translation":[-1.6763806343078613e-8,0.16528083384037018,1.1916199582628906e-7]},{"children":[25],"name":"clavicle_l","rotation":[-0.5777528285980225,-0.2662035822868347,-0.3040168285369873,0.7091622352600098],"scale":[0.9999998807907104,1,1],"translation":[0.018799958750605583,0.1472998410463333,0.10653714835643768]},{"name":"index_04_leaf_r","rotation":[-2.9649251587215986e-7,-1.1689399448400195e-9,-0.05475425347685814,0.998499870300293],"scale":[1,1,1.0000001192092896],"translation":[-1.0313669918105006e-8,0.022944042459130287,-2.2010178213349718e-7]},{"children":[27],"name":"index_03_r","rotation":[1.8314295857635443e-7,7.358883502561753e-10,0.03382435441017151,0.9994277954101562],"translation":[2.9734110285062343e-8,0.032772570848464966,-1.0872795996874629e-7]},{"children":[28],"name":"index_02_r","rotation":[1.6195931262785734e-9,1.8284202596419163e-8,0.00002238992601633072,1],"translation":[-3.740751708392054e-9,0.03861774876713753,1.3275145249735942e-7]},{"children":[29],"name":"index_01_r","rotation":[-0.02332102321088314,-0.7067247629165649,0.02332109771668911,0.7067195177078247],"scale":[1,0.9999999403953552,1],"translation":[-0.0037836953997612,0.08978896588087082,0.03540046140551567]},{"name":"middle_04_leaf_r","rotation":[-8.029010700738581e-8,-4.204528392115492e-10,-0.014196752570569515,0.9998992681503296],"scale":[0.9999999403953552,0.9999999403953552,1],"translation":[4.320099833421409e-10,0.03126883879303932,-1.3751963479080587e-7]},{"children":[31],"name":"middle_03_r","rotation":[9.33753483423061e-8,4.88292684064362e-10,0.01651035062968731,0.9998637437820435],"scale":[0.9999999403953552,0.9999999403953552,1],"translation":[1.1609699868131429e-8,0.020577218383550644,-2.02753000166922e-7]},{"children":[32],"name":"middle_02_r","rotation":[-2.61521535094289e-7,1.7086399850541056e-8,-0.0461399182677269,0.9989349842071533],"translation":[-6.969457899685949e-9,0.03230857476592064,2.779918304440798e-7]},{"children":[33],"name":"middle_01_r","rotation":[-0.02249029651284218,-0.7067517638206482,0.022490380331873894,0.7067462801933289],"scale":[1,0.9999998211860657,1],"translation":[-0.0013832480181008577,0.08280827105045319,0.012024560011923313]},{"name":"pinky_04_leaf_r","rotation":[3.5650387530949956e-7,1.4318725094497609e-9,0.063036248087883,0.9980112314224243],"scale":[1,1.0000001192092896,1],"translation":[1.915395841933787e-8,0.03554443269968033,-6.209899083842174e-8]},{"children":[35],"name":"pinky_03_r","rotation":[2.6725106749836414e-7,9.58555457231114e-10,0.04723479598760605,0.998883843421936],"scale":[1,1,0.9999999403953552],"translation":[-3.3001924748532474e-8,0.02701745182275772,-5.018006277168752e-8]},{"children":[36],"name":"pinky_02_r","rotation":[-4.0271416423820483e-7,1.3463517234413303e-7,-0.06959807127714157,0.9975751042366028],"scale":[1.0000001192092896,1,1],"translation":[1.763237378327176e-8,0.037459343671798706,1.260735871255747e-8]},{"children":[37],"name":"pinky_01_r","rotation":[0.02023288421332836,-0.7068200707435608,-0.02023296058177948,0.7068144083023071],"scale":[1.0000001192092896,1.000000238418579,1.0000001192092896],"translation":[-0.003382999449968338,0.08637537807226181,-0.03721658140420914]},{"name":"ring_04_leaf_r","rotation":[1.4794433411680075e-7,5.639642641774856e-10,0.027311574667692184,0.9996269941329956],"translation":[-1.0471012501511723e-8,0.03855046629905701,-1.27048480180747e-7]},{"children":[39],"name":"ring_03_r","rotation":[-5.01134671537784e-8,-1.8827257808329279e-10,-0.009250652976334095,0.9999572038650513],"translation":[-1.047010300680995e-8,0.03217708319425583,-2.2022297230250842e-7]},{"children":[40],"name":"ring_02_r","rotation":[2.5853038820855545e-8,1.3660830688877468e-7,0.004251999314874411,0.9999909996986389],"scale":[0.9999999403953552,1,1],"translation":[-1.2925738701596856e-8,0.026073401793837547,-1.0551616469456349e-8]},{"children":[41],"name":"ring_01_r","rotation":[0.02143731154501438,-0.7067844867706299,-0.0214373916387558,0.7067790031433105],"scale":[1,0.9999999403953552,1],"translation":[-0.001683595939539373,0.08694588392972946,-0.016287198290228844]},{"name":"thumb_04_leaf_r","rotation":[-0.010251578874886036,-0.007474786136299372,-0.09588979184627533,0.9953111410140991],"scale":[1,0.9999999403953552,1],"translation":[-4.889443516731262e-9,0.017823027446866035,7.450580596923828e-9]},{"children":[43],"name":"thumb_03_r","rotation":[-0.007072420325130224,-0.04199175164103508,0.009000714868307114,0.9990524053573608],"scale":[1.0000001192092896,1.0000001192092896,1.0000001192092896],"translation":[1.4668330550193787e-8,0.013870373368263245,1.862645149230957e-8]},{"children":[44],"name":"thumb_02_r","rotation":[0.05996078625321388,-0.03770150989294052,-0.043048083782196045,0.996559202671051],"scale":[0.9999998807907104,0.9999999403953552,1],"translation":[2.491287887096405e-7,0.031836993992328644,-2.7939677238464355e-8]},{"children":[45],"name":"thumb_01_r","rotation":[0.019082186743617058,-0.9745578765869141,-0.18061767518520355,0.13133996725082397],"scale":[1,1.0000004768371582,1],"translation":[-0.017274970188736916,0.02432860992848873,0.036434270441532135]},{"children":[30,34,38,42,46],"name":"hand_r","rotation":[0.022714564576745033,0.00016295012028422207,-0.007708108983933926,0.9997122883796692],"scale":[0.9999999403953552,1,1],"translation":[-1.1861448001582175e-7,0.34136566519737244,3.4924596548080444e-9]},{"children":[47],"name":"lowerarm_r","rotation":[0.022539788857102394,-0.00046400315477512777,0.005170752760022879,0.9997324347496033],"scale":[0.9999999403953552,1,1],"translation":[-1.5054320101626217e-7,0.3129552900791168,2.0372681319713593e-9]},{"children":[48],"name":"upperarm_r","rotation":[0.22331498563289642,-0.6720605492591858,0.24341055750846863,0.6627340316772461],"scale":[0.9999999403953552,0.9999999403953552,0.9999999403953552],"translation":[2.421438694000244e-8,0.16528083384037018,1.102307578548789e-9]},{"children":[49],"name":"clavicle_r","rotation":[-0.577752947807312,0.26620325446128845,0.3040165603160858,0.7091623544692993],"scale":[0.9999998807907104,0.9999998807907104,1],"translation":[-0.01880003698170185,0.1472998410463333,0.10653713345527649]},{"children":[2,26,50],"name":"spine_03","rotation":[-0.08116641640663147,1.0302758113311938e-7,-2.2475386884934778e-8,0.9967005848884583],"scale":[1,0.9999998807907104,1],"translation":[6.088212785749104e-15,0.14743272960186005,-1.210719347000122e-8]},{"children":[51],"name":"spine_02","rotation":[-0.07389921694993973,-6.253692674818012e-8,-1.7458289036653696e-8,0.9972657561302185],"scale":[1,0.9999998211860657,0.9999999403953552],"translation":[8.815579254810909e-15,0.1297631561756134,-5.587935447692871e-9]},{"children":[52],"name":"spine_01","rotation":[-0.06742119789123535,1.0391942595333603e-7,-1.3133419685118497e-8,0.9977245926856995],"translation":[-3.3332864056824854e-17,0.10397322475910187,-2.421438694000244e-8]},{"name":"ball_leaf_l","rotation":[0.02750079333782196,4.093538308325151e-8,9.553909663395643e-9,0.9996218085289001],"scale":[1,0.9999999403953552,1],"translation":[-2.412663313577923e-8,0.08628753572702408,3.7876120018154324e-9]},{"children":[54],"name":"ball_l","rotation":[0.00011110599007224664,0.9767427444458008,-0.2144140750169754,0.0005056423251517117],"scale":[1,1,0.9999998807907104],"translation":[-1.4089891919866204e-8,0.18140791356563568,1.2820237316191196e-8]},{"children":[55],"name":"foot_l","rotation":[-0.5864479541778564,-0.008365524001419544,0.012051540426909924,0.8098540902137756],"scale":[0.9999999403953552,0.9999999403953552,1],"translation":[2.5407643988728523e-8,0.4333927631378174,-3.892637323588133e-9]},{"children":[56],"name":"calf_l","rotation":[0.09893860667943954,0.002337454119697213,-0.005366242490708828,0.9950763583183289],"scale":[0.9999998807907104,1,0.9999998807907104],"translation":[-4.446519596967846e-9,0.42745959758758545,3.550756133563482e-9]},{"children":[57],"name":"thigh_l","rotation":[0.9891552925109863,0.00967455841600895,-0.0014331864658743143,0.1465475708246231],"scale":[1,1,0.9999998211860657],"translation":[0.1021384447813034,0.01983257196843624,0.01523701474070549]},{"name":"ball_leaf_r","rotation":[0.02750079333782196,-4.489039540089834e-8,-9.386863730753703e-9,0.9996218085289001],"scale":[1,1,0.9999999403953552],"translation":[3.112843316444014e-8,0.08628756552934647,-2.0560335656227835e-9]},{"children":[59],"name":"ball_r","rotation":[0.00011110503692179918,-0.9767428040504456,0.21441400051116943,0.0005056423251517117],"scale":[1,1.0000001192092896,0.9999999403953552],"translation":[1.454827724955976e-8,0.18140798807144165,1.1903466656804085e-8]},{"children":[60],"name":"foot_r","rotation":[-0.586448073387146,0.008365527726709843,-0.012051542289555073,0.8098540306091309],"scale":[0.9999999403953552,0.9999999403953552,1],"translation":[-3.5885022953152657e-8,0.43339285254478455,1.5337718650698662e-8]},{"children":[61],"name":"calf_r","rotation":[0.09893863648176193,-0.0023374510928988457,0.0053662327118217945,0.9950763583183289],"scale":[0.9999998807907104,0.9999998807907104,0.9999999403953552],"translation":[-1.0668372851796448e-9,0.4274595379829407,9.010054924374344e-10]},{"children":[62],"name":"thigh_r","rotation":[0.9891552925109863,-0.009674585424363613,0.0014332601567730308,0.1465476006269455],"scale":[1,0.9999999403953552,0.9999992251396179],"translation":[-0.1021384447813034,0.01983257196843624,0.015236994251608849]},{"children":[53,58,63],"name":"pelvis","rotation":[0.7904683351516724,2.7758709109093616e-8,3.5824129440698016e-8,0.612502932548523],"translation":[-3.1139009018766814e-16,0.05010020732879639,0.9374715685844421]},{"children":[64],"name":"root","rotation":[-0.7071067690849304,1.5197109121101014e-16,1.5197109121101014e-16,0.7071067690849304]},{"mesh":0,"name":"Character_28_HM","skin":0},{"children":[66,65],"name":"Armature_28_M","translation":[0,0.03572099655866623,0]}],"materials":[{"name":"Horizon Browser Survivor","pbrMetallicRoughness":{"baseColorFactor":[0.38,0.42,0.17,1],"metallicFactor":0,"roughnessFactor":0.78},"doubleSided":false}],"meshes":[{"name":"Character_28_HM","primitives":[{"attributes":{"POSITION":0,"NORMAL":1,"TEXCOORD_0":2,"JOINTS_0":3,"WEIGHTS_0":4},"indices":5,"material":0}]}],"skins":[{"inverseBindMatrices":6,"joints":[65,64,53,52,51,2,1,0,26,25,24,23,6,5,4,3,10,9,8,7,14,13,12,11,18,17,16,15,22,21,20,19,50,49,48,47,30,29,28,27,34,33,32,31,38,37,36,35,42,41,40,39,46,45,44,43,58,57,56,55,54,63,62,61,60,59],"name":"Armature_28_M"}],"accessors":[{"bufferView":0,"componentType":5126,"count":1002,"max":[0.9979714155197144,1.911118984222412,0.1715761423110962],"min":[-1.0001496076583862,-0.005725543946027756,-0.20223760604858398],"type":"VEC3"},{"bufferView":1,"componentType":5126,"count":1002,"type":"VEC3"},{"bufferView":2,"componentType":5126,"count":1002,"type":"VEC2"},{"bufferView":3,"componentType":5121,"count":1002,"type":"VEC4"},{"bufferView":4,"componentType":5126,"count":1002,"type":"VEC4"},{"bufferView":5,"componentType":5123,"count":2928,"type":"SCALAR"},{"bufferView":7,"componentType":5126,"count":66,"type":"MAT4"}],"bufferViews":[{"buffer":0,"byteLength":12024,"byteOffset":0,"target":34962},{"buffer":0,"byteLength":12024,"byteOffset":12024,"target":34962},{"buffer":0,"byteLength":8016,"byteOffset":24048,"target":34962},{"buffer":0,"byteLength":4008,"byteOffset":32064,"target":34962},{"buffer":0,"byteLength":16032,"byteOffset":36072,"target":34962},{"buffer":0,"byteLength":5856,"byteOffset":52104,"target":34963},{"buffer":0,"byteLength":304344,"byteOffset":57960},{"buffer":0,"byteLength":4224,"byteOffset":362304}],"buffers":[{"byteLength":366528,"uri":"data:application/octet-stream;base64,"}],"extras":{"horizon_runtime_variant":true,"source_file":"hazmat_suit_male.glb","license":"CC0","purpose":"same-origin browser skeletal survivor/hands"}}