{"asset":{"generator":"Khronos glTF Blender I/O v5.1.18","version":"2.0"},"scene":0,"scenes":[{"name":"Scene","nodes":[67]}],"nodes":[{"name":"head_leaf","rotation":[-0.047069963067770004,1.853803865969894e-8,-1.0350544421555696e-8,0.9988916516304016],"scale":[1,0.9999999403953552,0.9999999403953552],"translation":[5.8268311237206355e-15,0.06980979442596436,-1.30385160446167e-8]},{"children":[0],"name":"head","rotation":[-0.2030307948589325,-6.275343622519358e-8,-5.3889706919107994e-8,0.97917240858078],"scale":[1,0.9999999403953552,0.9999999403953552],"translation":[-4.0594053997162344e-14,0.132064551115036,2.1420419216156006e-8]},{"children":[1],"name":"neck_01","rotation":[0.3625248670578003,-2.365303863882673e-8,1.286579305315172e-7,0.9319741129875183],"translation":[-1.210756495062526e-10,0.15682853758335114,0.000318378210067749]},{"name":"index_04_leaf_l","rotation":[-2.9402414725154813e-7,-4.5704506845822834e-9,0.054754242300987244,0.998499870300293],"translation":[1.1759311746573076e-8,0.0229441300034523,-1.6727805984828592e-7]},{"children":[3],"name":"index_03_l","rotation":[1.816914618757437e-7,2.843398849705636e-9,-0.03382435441017151,0.9994277954101562],"scale":[0.9999999403953552,0.9999999403953552,1],"translation":[-3.340983312227763e-8,0.03277259320020676,1.4887280030961847e-7]},{"children":[4],"name":"index_02_l","rotation":[1.9260677497356937e-9,-4.159883104648543e-8,-0.00002239178866147995,1],"translation":[3.907643986167386e-9,0.03861777111887932,1.5255915286616073e-7]},{"children":[5],"name":"index_01_l","rotation":[-0.023321015760302544,0.7067247629165649,-0.023321092128753662,0.7067195177078247],"translation":[0.0037837002892047167,0.08978898078203201,0.035400476306676865]},{"name":"middle_04_leaf_l","rotation":[-7.952594671678526e-8,-1.006944194692494e-9,0.01419669296592474,0.9998992681503296],"scale":[0.9999999403953552,0.9999999403953552,1],"translation":[-4.5292836148291826e-10,0.03126884251832962,-1.5126346397664747e-7]},{"children":[7],"name":"middle_03_l","rotation":[9.248296350961027e-8,1.1694902823933262e-9,-0.016510289162397385,0.9998637437820435],"scale":[0.9999999403953552,0.9999999403953552,1],"translation":[-2.6529960450716317e-8,0.02057722583413124,-2.34302916624074e-7]},{"children":[8],"name":"middle_02_l","rotation":[-2.5993315944106143e-7,-4.4985874581016105e-8,0.04613988846540451,0.9989349842071533],"scale":[0.9999999403953552,1,1],"translation":[1.2643795344047248e-8,0.03230858966708183,1.7851189682005497e-7]},{"children":[9],"name":"middle_01_l","rotation":[-0.022490276023745537,0.7067517638206482,-0.022490359842777252,0.7067462801933289],"scale":[1,0.9999997615814209,0.9999998807907104],"translation":[0.0013832527911290526,0.08280828595161438,0.012024571187794209]},{"name":"pinky_04_leaf_l","rotation":[3.529527816681366e-7,4.794630470428274e-9,-0.063036248087883,0.9980112314224243],"scale":[0.9999999403953552,1,1],"translation":[-1.1725205695256591e-8,0.03554436191916466,-1.7024831322487444e-8]},{"children":[11],"name":"pinky_03_l","rotation":[2.6408994813209574e-7,3.3892773032562218e-9,-0.04723478853702545,0.998883843421936],"translation":[-4.271896614227444e-9,0.027017487213015556,6.15489170741057e-8]},{"children":[12],"name":"pinky_02_l","rotation":[-4.0179722304856114e-7,-1.7009415387292393e-7,0.06959805637598038,0.9975751638412476],"translation":[-7.148628355935216e-10,0.037459392100572586,2.0708344550257607e-7]},{"children":[13],"name":"pinky_01_l","rotation":[0.02023288421332836,0.7068200707435608,0.020232951268553734,0.7068144083023071],"scale":[1,1.000000238418579,1.0000001192092896],"translation":[0.0033830043394118547,0.08637537807226181,-0.03721657767891884]},{"name":"ring_04_leaf_l","rotation":[1.4639655887549452e-7,2.3343631472272364e-9,-0.027311569079756737,0.9996269941329956],"scale":[1,0.9999999403953552,1],"translation":[7.426024239975959e-10,0.03855041041970253,5.753028631261259e-8]},{"children":[15],"name":"ring_03_l","rotation":[-4.957137633709863e-8,-7.848040550761937e-10,0.009250649251043797,0.9999572038650513],"translation":[8.192273526219651e-9,0.03217708691954613,-2.5860771302177454e-8]},{"children":[16],"name":"ring_02_l","rotation":[2.2301595237195215e-8,-1.654703254416745e-7,-0.004252009093761444,0.9999909400939941],"scale":[0.9999998807907104,0.9999999403953552,1],"translation":[2.0620973373297602e-8,0.02607339434325695,-5.776803391199792e-8]},{"children":[17],"name":"ring_01_l","rotation":[0.021437328308820724,0.7067844867706299,0.021437399089336395,0.7067790031433105],"scale":[0.9999998807907104,0.9999997615814209,0.9999998807907104],"translation":[0.0016836007125675678,0.08694589138031006,-0.01628718711435795]},{"name":"thumb_04_leaf_l","rotation":[-0.010251610539853573,0.007475025951862335,0.09588976204395294,0.9953111410140991],"scale":[1,0.9999998211860657,0.9999998807907104],"translation":[1.7730053514242172e-7,0.017823029309511185,-9.313225746154785e-9]},{"children":[19],"name":"thumb_03_l","rotation":[-0.007072413340210915,0.04199161380529404,-0.009000692516565323,0.9990524053573608],"scale":[1,0.9999999403953552,1],"translation":[-1.1129304766654968e-7,0.013870414346456528,1.862645149230957e-8]},{"children":[20],"name":"thumb_02_l","rotation":[0.0599607490003109,0.037701524794101715,0.043048080056905746,0.996559202671051],"scale":[0.9999999403953552,0.9999999403953552,0.9999999403953552],"translation":[-1.0849907994270325e-7,0.031837139278650284,-4.842877388000488e-8]},{"children":[21],"name":"thumb_01_l","rotation":[0.01908218115568161,0.9745578169822693,0.18061766028404236,0.13133998215198517],"scale":[1,1.0000005960464478,1],"translation":[0.017274975776672363,0.024328622967004776,0.03643428534269333]},{"children":[6,10,14,18,22],"name":"hand_l","rotation":[0.026284482330083847,-0.00013202054833527654,0.010289634577929974,0.9996015429496765],"scale":[1,0.9999998211860657,0.9999998807907104],"translation":[-1.0410258255433291e-7,0.2557137906551361,-3.958120942115784e-9]},{"children":[23],"name":"lowerarm_l","rotation":[0.01896863989531994,0.0005409508012235165,-0.0077512371353805065,0.9997899532318115],"scale":[1,1.0000001192092896,1],"translation":[1.1787597031798214e-7,0.3129552900791168,-8.934875950217247e-9]},{"children":[24],"name":"upperarm_l","rotation":[0.1868462711572647,0.6582862138748169,-0.2783845067024231,0.6739805340766907],"scale":[0.9999998211860657,0.9999998807907104,0.9999999403953552],"translation":[-1.6763806343078613e-8,0.16656848788261414,-9.19681042432785e-8]},{"children":[25],"name":"clavicle_l","rotation":[-0.5188061594963074,-0.274838924407959,-0.29746487736701965,0.752873420715332],"scale":[1.0000001192092896,1.0000001192092896,1.0000001192092896],"translation":[0.018799958750605583,0.10226577520370483,0.1043923944234848]},{"name":"index_04_leaf_r","rotation":[-2.8418648412298353e-7,-1.8018483372017613e-9,-0.054754238575696945,0.998499870300293],"scale":[1,1.0000001192092896,1],"translation":[-1.548460204503499e-8,0.022944113239645958,-1.5736050329451245e-7]},{"children":[27],"name":"index_03_r","rotation":[1.755273899561871e-7,9.676610623898796e-10,0.03382435068488121,0.9994277954101562],"translation":[3.015020411112346e-8,0.03277261555194855,2.8677760610662517e-8]},{"children":[28],"name":"index_02_r","rotation":[8.870703616103981e-10,1.30735443804042e-7,0.000022386200726032257,1],"translation":[-6.678419595118612e-9,0.038617733865976334,1.5082210325090273e-7]},{"children":[29],"name":"index_01_r","rotation":[-0.02332102321088314,-0.7067247629165649,0.02332109771668911,0.7067194581031799],"scale":[1,0.9999998807907104,0.9999998807907104],"translation":[-0.0037835794501006603,0.08978904038667679,0.03540046513080597]},{"name":"middle_04_leaf_r","rotation":[-7.712020533290342e-8,-8.679325591565146e-10,-0.01419669110327959,0.9998992681503296],"scale":[0.9999999403953552,0.9999999403953552,1],"translation":[2.3164830054156482e-9,0.031268853694200516,-1.648657956820898e-7]},{"children":[31],"name":"middle_03_r","rotation":[8.969023213012406e-8,1.016683848220623e-9,0.016510292887687683,0.9998637437820435],"scale":[0.9999999403953552,0.9999999403953552,1],"translation":[2.280648914165795e-8,0.020577169954776764,-1.3298665635375073e-7]},{"children":[32],"name":"middle_02_r","rotation":[-2.57110599477528e-7,1.281961488075467e-7,-0.046139903366565704,0.9989349842071533],"translation":[-4.445610102266073e-9,0.03230855613946915,2.9600118978123646e-7]},{"children":[33],"name":"middle_01_r","rotation":[-0.022490281611680984,-0.7067517638206482,0.02249036729335785,0.7067462801933289],"scale":[1,0.9999997615814209,0.9999998807907104],"translation":[-0.0013831319520249963,0.08280835300683975,0.012024559080600739]},{"name":"pinky_04_leaf_r","rotation":[3.425379873078782e-7,3.3501070806352118e-9,0.0630362331867218,0.9980112314224243],"scale":[0.9999999403953552,1,1],"translation":[2.6625457394402474e-8,0.035544365644454956,-5.001351155442535e-8]},{"children":[35],"name":"pinky_03_r","rotation":[2.569989874245948e-7,3.5421359179110823e-9,0.04723478853702545,0.998883843421936],"scale":[0.9999999403953552,0.9999999403953552,1],"translation":[-3.29810063703917e-8,0.027017470449209213,2.026132506216527e-8]},{"children":[36],"name":"pinky_02_r","rotation":[-3.959657135510497e-7,2.4145450083778996e-7,-0.06959804892539978,0.9975751042366028],"translation":[-1.2443706509657204e-8,0.0374593511223793,-2.998979198309826e-8]},{"children":[37],"name":"pinky_01_r","rotation":[0.020232880488038063,-0.7068200707435608,-0.02023296058177948,0.7068144083023071],"scale":[0.9999999403953552,0.9999998211860657,1],"translation":[-0.0033828835003077984,0.08637545257806778,-0.037216585129499435]},{"name":"ring_04_leaf_r","rotation":[1.4188526620273478e-7,1.525397697044184e-9,0.027311576530337334,0.9996269941329956],"scale":[1,0.9999999403953552,1],"translation":[6.707978172926232e-9,0.03855046257376671,-8.853581334733462e-8]},{"children":[39],"name":"ring_03_r","rotation":[-4.806669906542993e-8,-5.505165212582597e-10,-0.009250660426914692,0.9999572038650513],"translation":[-8.192273526219651e-9,0.0321771465241909,-1.698118126114423e-7]},{"children":[40],"name":"ring_02_r","rotation":[2.465884207936142e-8,2.4731346570661117e-7,0.004252023994922638,0.9999909996986389],"scale":[0.9999999403953552,0.9999999403953552,1],"translation":[-1.1110387276858091e-8,0.02607339806854725,6.579040245924261e-8]},{"children":[41],"name":"ring_01_r","rotation":[0.021437332034111023,-0.7067844867706299,-0.02143741399049759,0.7067790031433105],"scale":[0.9999999403953552,0.9999998211860657,0.9999998807907104],"translation":[-0.0016834798734635115,0.08694595843553543,-0.016287202015519142]},{"name":"thumb_04_leaf_r","rotation":[-0.010251606814563274,-0.007475013844668865,-0.09588973224163055,0.9953111410140991],"scale":[1,0.9999998807907104,0.9999999403953552],"translation":[-1.2491364032030106e-7,0.017822977155447006,1.1175870895385742e-8]},{"children":[43],"name":"thumb_03_r","rotation":[-0.007072415668517351,-0.04199160262942314,0.009000711143016815,0.9990524053573608],"scale":[1,0.9999999403953552,1.0000001192092896],"translation":[7.683411240577698e-9,0.013870458118617535,0]},{"children":[44],"name":"thumb_02_r","rotation":[0.059960704296827316,-0.037701576948165894,-0.04304807260632515,0.9965591430664062],"scale":[1,1.0000001192092896,1],"translation":[2.1792948246002197e-7,0.03183702006936073,-5.587935447692871e-8]},{"children":[45],"name":"thumb_01_r","rotation":[0.019082173705101013,-0.9745578169822693,-0.18061763048171997,0.13133996725082397],"scale":[1,1.0000001192092896,1],"translation":[-0.017274854704737663,0.02432869002223015,0.03643427789211273]},{"children":[30,34,38,42,46],"name":"hand_r","rotation":[0.026284480467438698,0.00013202260015532374,-0.010289626196026802,0.9996016025543213],"scale":[1,0.9999999403953552,0.9999999403953552],"translation":[-1.408698153682053e-7,0.2557137906551361,1.0477378964424133e-9]},{"children":[47],"name":"lowerarm_r","rotation":[0.018968649208545685,-0.000541067507583648,0.007751272059977055,0.9997898936271667],"scale":[1,0.9999999403953552,1],"translation":[-1.4058514352655038e-7,0.31295520067214966,-5.820766091346741e-10]},{"children":[48],"name":"upperarm_r","rotation":[0.18684618175029755,-0.6582861542701721,0.27838456630706787,0.6739806532859802],"scale":[1,0.9999999403953552,1],"translation":[3.91155481338501e-8,0.16656845808029175,-9.057112038135529e-8]},{"children":[49],"name":"clavicle_r","rotation":[-0.5188062787055969,0.2748386561870575,0.29746466875076294,0.7528735399246216],"translation":[-0.01880003698170185,0.10226577520370483,0.1043923869729042]},{"children":[2,26,50],"name":"spine_03","rotation":[-0.10608620196580887,1.0278531448193462e-7,-2.9375790688845882e-8,0.9943569302558899],"translation":[6.054162061269481e-15,0.13319851458072662,-1.30385160446167e-8]},{"children":[51],"name":"spine_02","rotation":[-0.10358846932649612,-6.2371071862799e-8,-2.4472226911598227e-8,0.9946202635765076],"translation":[1.2132870290317444e-15,0.08791939169168472,-2.0489096641540527e-8]},{"children":[52],"name":"spine_01","rotation":[-0.008931185118854046,-1.5052219026756575e-8,-2.804445564663638e-9,0.9999601244926453],"translation":[1.2108640912861235e-15,0.13630926609039307,-2.2351741790771484e-8]},{"name":"ball_leaf_l","rotation":[0.027500826865434647,5.1583320725967496e-8,9.260979538794345e-9,0.9996218085289001],"scale":[1,0.9999998807907104,0.9999999403953552],"translation":[-2.0206393003263656e-8,0.08628742396831512,3.3853453373922093e-10]},{"children":[54],"name":"ball_l","rotation":[0.00009496712300460786,0.9830639362335205,-0.1832621842622757,0.0005089148180559278],"scale":[0.9999999403953552,1.0000003576278687,1],"translation":[-1.6039848560467362e-8,0.17602939903736115,6.912159733474255e-9]},{"children":[55],"name":"foot_l","rotation":[-0.6138959527015686,-0.009033283218741417,0.012162357568740845,0.7892415523529053],"translation":[2.1711457520723343e-8,0.4198615550994873,4.900357453152537e-9]},{"children":[56],"name":"calf_l","rotation":[0.10497063398361206,0.002560010179877281,-0.0042115855030715466,0.9944631457328796],"translation":[7.030394044704735e-9,0.3658386766910553,-1.2369127944111824e-10]},{"children":[57],"name":"thigh_l","rotation":[0.992714524269104,0.01135414931923151,-0.001296323724091053,0.11994735896587372],"scale":[1,1,1.0000011920928955],"translation":[0.10213843733072281,-0.003561579156666994,0.020764632150530815]},{"name":"ball_leaf_r","rotation":[0.02750079333782196,-5.1468934003651157e-8,-9.336888595612436e-9,0.9996218085289001],"scale":[1,0.9999999403953552,0.9999999403953552],"translation":[2.023499590109168e-8,0.08628742396831512,2.3902799739516922e-9]},{"children":[59],"name":"ball_r","rotation":[0.00009496689744992182,-0.9830639362335205,0.1832621842622757,0.0005089147598482668],"scale":[1,1.0000001192092896,1],"translation":[1.6133526514749974e-8,0.17602939903736115,1.8102582544088364e-8]},{"children":[60],"name":"foot_r","rotation":[-0.6138960123062134,0.009033283218741417,-0.01216235663741827,0.7892415523529053],"scale":[1,0.9999999403953552,0.9999999403953552],"translation":[-3.405148163437843e-8,0.4198615550994873,8.396455086767673e-9]},{"children":[61],"name":"calf_r","rotation":[0.10497063398361206,-0.0025600262451916933,0.00421158317476511,0.9944630861282349],"scale":[1,1.0000001192092896,1],"translation":[-8.368260751012713e-9,0.3658386468887329,-1.2405507732182741e-9]},{"children":[62],"name":"thigh_r","rotation":[0.992714524269104,-0.011354189366102219,0.0012966651702299714,0.11994734406471252],"scale":[1,1,1.0000011920928955],"translation":[-0.102138452231884,-0.003561579156666994,0.020764563232660294]},{"children":[53,58,63],"name":"pelvis","rotation":[0.7715082168579102,1.04676779244528e-7,1.2693578810285544e-7,0.6362193822860718],"scale":[1,0.9999998807907104,0.9999998807907104],"translation":[-3.1139009018766814e-16,0.05010020732879639,0.872346043586731]},{"children":[64],"name":"root","rotation":[-0.7071067690849304,1.5197109121101014e-16,1.5197109121101014e-16,0.7071067690849304]},{"mesh":0,"name":"Character_32","skin":0},{"children":[66,65],"name":"Armature_32_M"}],"materials":[{"name":"Horizon Browser Survivor","pbrMetallicRoughness":{"baseColorFactor":[0.24,0.27,0.25,1],"metallicFactor":0,"roughnessFactor":0.78},"doubleSided":false}],"meshes":[{"name":"Character_32","primitives":[{"attributes":{"POSITION":0,"NORMAL":1,"TEXCOORD_0":2,"JOINTS_0":3,"WEIGHTS_0":4},"indices":5,"material":0}]}],"skins":[{"inverseBindMatrices":6,"joints":[65,64,53,52,51,2,1,0,26,25,24,23,6,5,4,3,10,9,8,7,14,13,12,11,18,17,16,15,22,21,20,19,50,49,48,47,30,29,28,27,34,33,32,31,38,37,36,35,42,41,40,39,46,45,44,43,58,57,56,55,54,63,62,61,60,59],"name":"Armature_32_M"}],"accessors":[{"bufferView":0,"componentType":5126,"count":755,"max":[0.8932462334632874,1.698795199394226,0.14852356910705566],"min":[-0.8841208815574646,-0.0022485964000225067,-0.15233469009399414],"type":"VEC3"},{"bufferView":1,"componentType":5126,"count":755,"type":"VEC3"},{"bufferView":2,"componentType":5126,"count":755,"type":"VEC2"},{"bufferView":3,"componentType":5121,"count":755,"type":"VEC4"},{"bufferView":4,"componentType":5126,"count":755,"type":"VEC4"},{"bufferView":5,"componentType":5123,"count":2724,"type":"SCALAR"},{"bufferView":7,"componentType":5126,"count":66,"type":"MAT4"}],"bufferViews":[{"buffer":0,"byteLength":9060,"byteOffset":0,"target":34962},{"buffer":0,"byteLength":9060,"byteOffset":9060,"target":34962},{"buffer":0,"byteLength":6040,"byteOffset":18120,"target":34962},{"buffer":0,"byteLength":3020,"byteOffset":24160,"target":34962},{"buffer":0,"byteLength":12080,"byteOffset":27180,"target":34962},{"buffer":0,"byteLength":5448,"byteOffset":39260,"target":34963},{"buffer":0,"byteLength":326527,"byteOffset":44708},{"buffer":0,"byteLength":4224,"byteOffset":371236}],"buffers":[{"byteLength":375460,"uri":"data:application/octet-stream;base64,"}],"extras":{"horizon_runtime_variant":true,"source_file":"male_32.glb","license":"CC0","purpose":"same-origin browser skeletal survivor/hands"}}