{"asset":{"generator":"Khronos glTF Blender I/O v5.1.18","version":"2.0"},"scene":0,"scenes":[{"name":"Scene","nodes":[67]}],"nodes":[{"name":"head_leaf","rotation":[-0.04706993326544762,1.8780120569772407e-8,-1.0564919605826617e-8,0.9988915920257568],"scale":[1,0.9999998807907104,1],"translation":[-3.713229723700806e-11,0.06980955600738525,2.486045325156283e-8]},{"children":[0],"name":"head","rotation":[-0.16712254285812378,-0.0008691430557519197,0.0033920248970389366,0.9859299063682556],"scale":[1.0000001192092896,1,0.9999999403953552],"translation":[3.637978807091713e-12,0.15316487848758698,2.9818693292327225e-8]},{"children":[1],"name":"neck_01","rotation":[0.30663931369781494,0.0033762508537620306,0.0024363836273550987,0.9518166780471802],"scale":[1,0.9999999403953552,1],"translation":[-0.00013900439080316573,0.18916401267051697,-0.00020697519357781857]},{"name":"index_04_leaf_l","rotation":[-3.0158670938362775e-7,-1.5127669117376286e-9,0.054754238575696945,0.998499870300293],"scale":[1,1.0000001192092896,1],"translation":[1.391163095831871e-8,0.022944046184420586,-1.385027132982941e-7]},{"children":[3],"name":"index_03_l","rotation":[1.8632700005127845e-7,8.554705277497021e-10,-0.03382434695959091,0.9994277954101562],"translation":[-2.7997884899377823e-8,0.03277258202433586,-4.513087503710267e-8]},{"children":[4],"name":"index_02_l","rotation":[-1.4556817973243596e-9,2.7792713908070255e-8,-0.00002239644709334243,1],"scale":[0.9999999403953552,0.9999999403953552,0.9999999403953552],"translation":[2.1518644643947482e-9,0.03861778974533081,1.9124378525248176e-7]},{"children":[5],"name":"index_01_l","rotation":[-0.023321015760302544,0.7067247629165649,-0.02332109585404396,0.7067195177078247],"translation":[0.003783482126891613,0.089789018034935,0.035400453954935074]},{"name":"middle_04_leaf_l","rotation":[-8.155775077511862e-8,-3.905809287108042e-10,0.014196581207215786,0.9998992085456848],"scale":[0.9999999403953552,1,1],"translation":[-6.33917807135731e-10,0.0312688834965229,2.7238264976858773e-8]},{"children":[7],"name":"middle_03_l","rotation":[9.484775631563025e-8,4.5851841767863277e-10,-0.01651022769510746,0.9998637437820435],"scale":[0.9999999403953552,0.9999999403953552,1],"translation":[-1.7398633644916117e-8,0.02057720348238945,-1.6671393154865655e-7]},{"children":[8],"name":"middle_02_l","rotation":[-2.6291800736544246e-7,2.68059920927044e-8,0.04613989591598511,0.9989349842071533],"scale":[1,1.0000001192092896,1],"translation":[8.267306839115918e-9,0.03230859711766243,2.2054426551676443e-7]},{"children":[9],"name":"middle_01_l","rotation":[-0.02249028906226158,0.7067517638206482,-0.0224903654307127,0.7067462801933289],"scale":[1,0.9999997615814209,0.9999998807907104],"translation":[0.0013830347452312708,0.08280839025974274,0.012024552561342716]},{"name":"pinky_04_leaf_l","rotation":[3.62018482746862e-7,2.3251491843012673e-9,-0.0630362331867218,0.9980112314224243],"scale":[1,1.0000001192092896,1],"translation":[4.8594301915727556e-9,0.035544365644454956,7.542638513768907e-8]},{"children":[11],"name":"pinky_03_l","rotation":[2.7105150479656004e-7,2.2970199076155495e-9,-0.04723479598760605,0.998883843421936],"translation":[2.7212990971747786e-8,0.027017509564757347,5.962880322840647e-8]},{"children":[12],"name":"pinky_02_l","rotation":[-4.084758984390646e-7,-9.582463889046267e-8,0.06959810107946396,0.9975751638412476],"scale":[1,1,1.0000001192092896],"translation":[2.380147634539753e-9,0.037459470331668854,1.9805327156063868e-8]},{"children":[13],"name":"pinky_01_l","rotation":[0.020232845097780228,0.7068200707435608,0.020232919603586197,0.7068144083023071],"scale":[1,1.0000001192092896,1.0000001192092896],"translation":[0.0033827864099293947,0.08637549728155136,-0.037216585129499435]},{"name":"ring_04_leaf_l","rotation":[1.5033801048502937e-7,1.280624717381329e-9,-0.027311569079756737,0.9996269941329956],"scale":[1,0.9999999403953552,1],"translation":[6.619302439503372e-9,0.03855041414499283,-9.653223287386936e-8]},{"children":[15],"name":"ring_03_l","rotation":[-5.09130479997566e-8,-4.5159409545192375e-10,0.009250659495592117,0.9999572038650513],"scale":[0.9999999403953552,0.9999999403953552,1],"translation":[-8.321876521222293e-10,0.032177142798900604,-1.8460087858329643e-7]},{"children":[16],"name":"ring_02_l","rotation":[2.4812255361439384e-8,-9.304110193397719e-8,-0.004251986276358366,0.9999909996986389],"scale":[0.9999999403953552,1,1],"translation":[5.163201421964914e-9,0.026073355227708817,2.6937811981042614e-9]},{"children":[17],"name":"ring_01_l","rotation":[0.02143729291856289,0.7067844867706299,0.021437378600239754,0.7067790031433105],"scale":[0.9999999403953552,0.9999997019767761,0.9999998807907104],"translation":[0.001683382666669786,0.08694588392972946,-0.01628720946609974]},{"name":"thumb_04_leaf_l","rotation":[-0.010251644998788834,0.0074750143103301525,0.09588972479104996,0.9953110814094543],"scale":[1.0000001192092896,1,1.0000001192092896],"translation":[1.695880200713873e-7,0.017822999507188797,2.468004822731018e-8]},{"children":[19],"name":"thumb_03_l","rotation":[-0.0070723737590014935,0.04199161380529404,-0.009000721387565136,0.9990524053573608],"scale":[1,1,1.0000001192092896],"translation":[-1.4621764421463013e-7,0.013870538212358952,1.1175870895385742e-8]},{"children":[20],"name":"thumb_02_l","rotation":[0.0599607415497303,0.0377015620470047,0.043048061430454254,0.996559202671051],"scale":[0.9999999403953552,0.9999999403953552,1],"translation":[-1.1711381375789642e-7,0.031836941838264465,-5.587935447692871e-8]},{"children":[21],"name":"thumb_01_l","rotation":[0.019082173705101013,0.9745578169822693,0.18061761558055878,0.13133995234966278],"scale":[1,1.000000238418579,1],"translation":[0.017274757847189903,0.024328725412487984,0.03643426671624184]},{"children":[6,10,14,18,22],"name":"hand_l","rotation":[0.024793123826384544,-0.0006549754762090743,-0.013228219002485275,0.9996048808097839],"scale":[1,0.9999998211860657,1],"translation":[-7.750350050628185e-8,0.2858544588088989,-2.7939677238464355e-9]},{"children":[23],"name":"lowerarm_l","rotation":[0.04615238681435585,-0.0005037689115852118,0.036968376487493515,0.9982500076293945],"scale":[1,0.9999998807907104,1],"translation":[3.540480975061655e-8,0.30402278900146484,-4.6566128730773926e-9]},{"children":[24],"name":"upperarm_l","rotation":[0.10457921773195267,0.676713228225708,-0.232855424284935,0.6905800104141235],"scale":[0.9999998807907104,0.9999998807907104,1],"translation":[-9.76797309704125e-9,0.1494264304637909,5.564652383327484e-8]},{"children":[25],"name":"clavicle_l","rotation":[-0.5083231329917908,-0.3226870000362396,-0.3352547585964203,0.7246274948120117],"scale":[1,0.9999998807907104,0.9999998807907104],"translation":[0.019299957901239395,0.13962332904338837,0.10623443126678467]},{"name":"index_04_leaf_r","rotation":[-3.044362131277012e-7,-1.1777532282764014e-9,-0.054754238575696945,0.998499870300293],"translation":[-1.763874024618417e-8,0.022944023832678795,-1.4187861552272807e-7]},{"children":[27],"name":"index_03_r","rotation":[1.8805357626661134e-7,8.444625554382412e-10,0.03382435441017151,0.9994277954101562],"scale":[0.9999999403953552,0.9999999403953552,1],"translation":[3.358491085236892e-8,0.03277256339788437,-4.556321187010326e-8]},{"children":[28],"name":"index_02_r","rotation":[-6.794469986637353e-10,-5.4567635743296705e-8,0.00002239365130662918,1],"translation":[-6.415575626306236e-9,0.03861783444881439,7.337220608860662e-8]},{"children":[29],"name":"index_01_r","rotation":[-0.023321017622947693,-0.7067247629165649,0.02332109771668911,0.7067194581031799],"scale":[1,0.9999998807907104,0.9999998807907104],"translation":[-0.003783483523875475,0.0897890105843544,0.03540046140551567]},{"name":"middle_04_leaf_r","rotation":[-8.234996329292699e-8,-2.3934559889582374e-10,-0.014196580275893211,0.9998992085456848],"scale":[0.9999999403953552,1,1],"translation":[6.220034265425056e-9,0.031268805265426636,3.093448697200074e-8]},{"children":[31],"name":"middle_03_r","rotation":[9.577109949532314e-8,2.7280719350208926e-10,0.01651022955775261,0.9998637437820435],"translation":[2.1122104953974485e-8,0.020577186718583107,-1.6130474023157149e-7]},{"children":[32],"name":"middle_02_r","rotation":[-2.634308771121141e-7,-5.5458080794323905e-8,-0.046139903366565704,0.9989349842071533],"scale":[1,0.9999999403953552,1],"translation":[-8.265487849712372e-9,0.03230857849121094,2.2184485715115443e-7]},{"children":[33],"name":"middle_01_r","rotation":[-0.02249028906226158,-0.7067517638206482,0.0224903654307127,0.7067462801933289],"scale":[1,0.9999997615814209,0.9999998807907104],"translation":[-0.0013830360257998109,0.08280831575393677,0.012024556286633015]},{"name":"pinky_04_leaf_r","rotation":[3.656195133316942e-7,-1.0456892296506481e-10,0.0630362331867218,0.9980112314224243],"translation":[2.5911504053510725e-9,0.03554435446858406,-3.1910929010336986e-8]},{"children":[35],"name":"pinky_03_r","rotation":[2.7391922685637837e-7,-9.385269228445736e-10,0.04723479971289635,0.998883843421936],"translation":[-1.2313648767303675e-8,0.0270175039768219,-4.216514071231359e-8]},{"children":[36],"name":"pinky_02_r","rotation":[-4.060874800870806e-7,6.496870952332756e-8,-0.06959806382656097,0.9975751042366028],"scale":[1,0.9999999403953552,1],"translation":[1.2823875294998288e-9,0.03745939955115318,2.74088449714327e-8]},{"children":[37],"name":"pinky_01_r","rotation":[0.020232878625392914,-0.7068200707435608,-0.02023296430706978,0.7068144083023071],"scale":[0.9999999403953552,0.9999998211860657,1],"translation":[-0.003382787574082613,0.0863754153251648,-0.037216588854789734]},{"name":"ring_04_leaf_r","rotation":[1.5189563384865323e-7,-1.7684010505947256e-11,0.027311569079756737,0.9996269941329956],"translation":[-6.620211934205145e-9,0.03855045139789581,3.175657070642046e-8]},{"children":[39],"name":"ring_03_r","rotation":[-5.14484810310023e-8,3.342358334545992e-11,-0.009250656701624393,0.9999572038650513],"scale":[1,0.9999999403953552,1],"translation":[-2.8971044230274856e-8,0.03217717632651329,-1.7657254147707135e-7]},{"children":[40],"name":"ring_02_r","rotation":[2.3890354583500084e-8,6.394969886969193e-8,0.004251993726938963,0.9999909996986389],"scale":[0.9999999403953552,1,1],"translation":[-2.3343091015703976e-8,0.02607332356274128,1.200560859615507e-7]},{"children":[41],"name":"ring_01_r","rotation":[0.021437305957078934,-0.7067844867706299,-0.0214373916387558,0.7067790031433105],"scale":[0.9999999403953552,0.9999997019767761,0.9999998807907104],"translation":[-0.001683383947238326,0.08694592118263245,-0.01628720574080944]},{"name":"thumb_04_leaf_r","rotation":[-0.01025164034217596,-0.007474979851394892,-0.09588975459337234,0.9953111410140991],"scale":[1.0000001192092896,0.9999998807907104,0.9999999403953552],"translation":[-2.810847945511341e-7,0.017822938039898872,-7.450580596923828e-9]},{"children":[43],"name":"thumb_03_r","rotation":[-0.007072411011904478,-0.04199160635471344,0.009000705555081367,0.9990524053573608],"scale":[1,0.9999999403953552,1],"translation":[7.206108421087265e-8,0.01387043297290802,3.259629011154175e-8]},{"children":[44],"name":"thumb_02_r","rotation":[0.0599607415497303,-0.03770158439874649,-0.043048080056905746,0.9965591430664062],"scale":[0.9999998807907104,1,0.9999999403953552],"translation":[2.4354085326194763e-7,0.03183700889348984,-5.587935447692871e-9]},{"children":[45],"name":"thumb_01_r","rotation":[0.01908218115568161,-0.9745578169822693,-0.18061761558055878,0.13133998215198517],"scale":[1,1.0000005960464478,1],"translation":[-0.017274759709835052,0.024328656494617462,0.036434274166822433]},{"children":[30,34,38,42,46],"name":"hand_r","rotation":[0.024793129414319992,0.0006549785612151027,0.01322821993380785,0.9996048808097839],"scale":[1,0.9999998211860657,1],"translation":[-1.5903788153082132e-7,0.28585439920425415,1.0477378964424133e-9]},{"children":[47],"name":"lowerarm_r","rotation":[0.04615240916609764,0.000503803021274507,-0.03696839138865471,0.9982500076293945],"scale":[1,0.9999998807907104,0.9999999403953552],"translation":[-3.2421667128801346e-8,0.3040226995944977,-9.313225746154785e-9]},{"children":[48],"name":"upperarm_r","rotation":[0.10457923263311386,-0.676713228225708,0.23285546898841858,0.6905800104141235],"scale":[1,1.0000001192092896,1.0000001192092896],"translation":[1.2227246770635247e-8,0.1494264453649521,4.076864570379257e-7]},{"children":[49],"name":"clavicle_r","rotation":[-0.5120402574539185,0.3168261647224426,0.3441493809223175,0.7204145789146423],"scale":[0.9999998807907104,1,1],"translation":[-0.02257285639643669,0.13911929726600647,0.10625066608190536]},{"children":[2,26,50],"name":"spine_03","rotation":[-0.08342986553907394,-0.0006953586707822978,-0.005981119815260172,0.9964954853057861],"scale":[1,1.0000001192092896,1],"translation":[5.382551331457441e-15,0.13319839537143707,-1.30385160446167e-8]},{"children":[51],"name":"spine_02","rotation":[-0.07552642375230789,-6.252925999206127e-8,-1.7842710420268304e-8,0.9971438050270081],"translation":[5.262865576010408e-15,0.12976327538490295,-5.587935447692871e-9]},{"children":[52],"name":"spine_01","rotation":[-0.06742119789123535,1.0391942595333603e-7,-1.3133419685118497e-8,0.9977245926856995],"translation":[1.7430239753434256e-15,0.10397334396839142,-2.421438694000244e-8]},{"name":"ball_leaf_l","rotation":[0.02750079333782196,4.093538308325151e-8,9.553909663395643e-9,0.9996218085289001],"scale":[1,0.9999999403953552,1],"translation":[-2.805259669003135e-8,0.08628753572702408,2.856289427199954e-9]},{"children":[54],"name":"ball_l","rotation":[0.00011110599007224664,0.9767427444458008,-0.2144140750169754,0.0005056423251517117],"scale":[1,1,0.9999998807907104],"translation":[-1.7289494280703366e-8,0.1814078986644745,1.095759216696024e-8]},{"children":[55],"name":"foot_l","rotation":[-0.5864479541778564,-0.008365524001419544,0.012051540426909924,0.8098540902137756],"scale":[0.9999999403953552,0.9999999403953552,1],"translation":[3.425520844757557e-8,0.4333927631378174,-1.0986695997416973e-9]},{"children":[56],"name":"calf_l","rotation":[0.09893860667943954,0.002337454119697213,-0.005366242490708828,0.9950763583183289],"scale":[0.9999998807907104,1,0.9999998807907104],"translation":[2.1009327610954642e-10,0.42745959758758545,7.567884097170463e-10]},{"children":[57],"name":"thigh_l","rotation":[0.9891552925109863,0.00967455841600895,-0.0014331864658743143,0.1465475708246231],"scale":[1,1,0.9999998211860657],"translation":[0.1021384447813034,0.019832512363791466,0.015237029641866684]},{"name":"ball_leaf_r","rotation":[0.02750079333782196,-4.489039540089834e-8,-9.386863730753703e-9,0.9996218085289001],"scale":[1,1,0.9999999403953552],"translation":[2.78861769231753e-8,0.08628757297992706,-1.9338841639182647e-10]},{"children":[59],"name":"ball_r","rotation":[0.00011110503692179918,-0.9767428040504456,0.21441400051116943,0.0005056423251517117],"scale":[1,1.0000001192092896,0.9999999403953552],"translation":[1.7488673620391637e-8,0.18140797317028046,6.315531209111214e-9]},{"children":[60],"name":"foot_r","rotation":[-0.586448073387146,0.008365527726709843,-0.012051542289555073,0.8098540306091309],"scale":[0.9999999403953552,0.9999999403953552,1],"translation":[-2.9598595574498177e-8,0.43339279294013977,1.4406396076083183e-8]},{"children":[61],"name":"calf_r","rotation":[0.09893863648176193,-0.0023374510928988457,0.0053662327118217945,0.9950763583183289],"scale":[0.9999998807907104,0.9999998807907104,0.9999999403953552],"translation":[2.6584530132822692e-9,0.42745959758758545,1.832328067052913e-9]},{"children":[62],"name":"thigh_r","rotation":[0.9891552925109863,-0.009674585424363613,0.0014332601567730308,0.1465476006269455],"scale":[1,0.9999999403953552,0.9999992251396179],"translation":[-0.1021384447813034,0.019832512363791466,0.015237009152770042]},{"children":[53,58,63],"name":"pelvis","rotation":[0.7904683351516724,2.7758709109093616e-8,3.5824129440698016e-8,0.612502932548523],"translation":[-3.1139009018766814e-16,0.05010020732879639,0.9374715685844421]},{"children":[64],"name":"root","rotation":[-0.7071067690849304,1.5197109121101014e-16,1.5197109121101014e-16,0.7071067690849304]},{"mesh":0,"name":"Character_18_Police","skin":0},{"children":[66,65],"name":"Armature_18_M"}],"materials":[{"name":"Horizon Browser Survivor","pbrMetallicRoughness":{"baseColorFactor":[0.12,0.18,0.22,1],"metallicFactor":0,"roughnessFactor":0.78},"doubleSided":false}],"meshes":[{"name":"Character_18_Police","primitives":[{"attributes":{"POSITION":0,"NORMAL":1,"TEXCOORD_0":2,"JOINTS_0":3,"WEIGHTS_0":4},"indices":5,"material":0}]}],"skins":[{"inverseBindMatrices":6,"joints":[65,64,53,52,51,2,1,0,26,25,24,23,6,5,4,3,10,9,8,7,14,13,12,11,18,17,16,15,22,21,20,19,50,49,48,47,30,29,28,27,34,33,32,31,38,37,36,35,42,41,40,39,46,45,44,43,58,57,56,55,54,63,62,61,60,59],"name":"Armature_18_M"}],"accessors":[{"bufferView":0,"componentType":5126,"count":739,"max":[0.9356080889701843,1.8603806495666504,0.16419640183448792],"min":[-0.9186721444129944,0.0016946503892540932,-0.16272220015525818],"type":"VEC3"},{"bufferView":1,"componentType":5126,"count":739,"type":"VEC3"},{"bufferView":2,"componentType":5126,"count":739,"type":"VEC2"},{"bufferView":3,"componentType":5121,"count":739,"type":"VEC4"},{"bufferView":4,"componentType":5126,"count":739,"type":"VEC4"},{"bufferView":5,"componentType":5123,"count":2700,"type":"SCALAR"},{"bufferView":7,"componentType":5126,"count":66,"type":"MAT4"}],"bufferViews":[{"buffer":0,"byteLength":8868,"byteOffset":0,"target":34962},{"buffer":0,"byteLength":8868,"byteOffset":8868,"target":34962},{"buffer":0,"byteLength":5912,"byteOffset":17736,"target":34962},{"buffer":0,"byteLength":2956,"byteOffset":23648,"target":34962},{"buffer":0,"byteLength":11824,"byteOffset":26604,"target":34962},{"buffer":0,"byteLength":5400,"byteOffset":38428,"target":34963},{"buffer":0,"byteLength":283298,"byteOffset":43828},{"buffer":0,"byteLength":4224,"byteOffset":327128}],"buffers":[{"byteLength":331352,"uri":"data:application/octet-stream;base64,"}],"extras":{"horizon_runtime_variant":true,"source_file":"police_male.glb","license":"CC0","purpose":"same-origin browser skeletal survivor/hands"}}