{"asset":{"generator":"Khronos glTF Blender I/O v5.1.18","version":"2.0"},"scene":0,"scenes":[{"name":"Scene","nodes":[67]}],"nodes":[{"name":"head_leaf","rotation":[-0.046119824051856995,1.853884157299035e-8,-1.0141614659175957e-8,0.9989359378814697],"scale":[1,1.0000001192092896,0.9999999403953552],"translation":[3.669473782447717e-16,0.07137230038642883,1.1175870895385742e-8]},{"children":[0],"name":"head","rotation":[-0.1943625509738922,-6.286609277594835e-8,-5.1588951777148395e-8,0.9809297919273376],"scale":[1,0.9999999403953552,0.9999999403953552],"translation":[-9.594210903442636e-15,0.1370575875043869,1.6763806343078613e-8]},{"children":[1],"name":"neck_01","rotation":[0.3533782660961151,-2.3741971943991302e-8,1.254118444649066e-7,0.935480535030365],"scale":[1,1,0.9999999403953552],"translation":[-1.210793687533851e-10,0.15682852268218994,0.0003183819353580475]},{"name":"index_04_leaf_l","rotation":[-3.0240698833949864e-7,8.796466666183278e-9,0.05475423112511635,0.998499870300293],"scale":[1,1.0000001192092896,1],"translation":[1.1438714864198118e-8,0.022944128140807152,-5.185452067735241e-8]},{"children":[3],"name":"index_03_l","rotation":[1.867005039457581e-7,-5.527965640794719e-9,-0.03382434695959091,0.9994277954101562],"scale":[0.9999999403953552,1,1],"translation":[-2.9831426218152046e-8,0.032772570848464966,3.28869234067497e-8]},{"children":[4],"name":"index_02_l","rotation":[1.2214629308004987e-9,3.674269066777924e-8,-0.000022381542294169776,1],"scale":[1.0000001192092896,1.0000001192092896,1],"translation":[5.928995960857719e-9,0.03861774876713753,2.7608112418420205e-7]},{"children":[5],"name":"index_01_l","rotation":[-0.02332102134823799,0.7067247629165649,-0.02332109957933426,0.7067194581031799],"scale":[1,0.9999998807907104,0.9999998807907104],"translation":[0.0037835503462702036,0.0897890031337738,0.03540046513080597]},{"name":"middle_04_leaf_l","rotation":[-8.199739909287018e-8,2.2568282798118844e-9,0.01419663242995739,0.9998992681503296],"scale":[0.9999999403953552,0.9999999403953552,1],"translation":[1.5279510989785194e-10,0.03126878663897514,-2.655056619005336e-8]},{"children":[7],"name":"middle_03_l","rotation":[9.53661540847861e-8,-2.619046979290829e-9,-0.016510233283042908,0.9998637437820435],"scale":[1,0.9999999403953552,1],"translation":[-2.2200765670277178e-8,0.020577210932970047,-1.0376777481724275e-7]},{"children":[8],"name":"middle_02_l","rotation":[-2.647547319156729e-7,4.417803012302102e-8,0.046139925718307495,0.9989349842071533],"translation":[6.459231371991336e-9,0.03230860084295273,4.1105698755927733e-7]},{"children":[9],"name":"middle_01_l","rotation":[-0.02249029651284218,0.7067517638206482,-0.022490378469228745,0.7067462801933289],"scale":[1,0.9999997615814209,0.9999998807907104],"translation":[0.0013831029646098614,0.08280836790800095,0.012024560943245888]},{"name":"pinky_04_leaf_l","rotation":[3.643066008862661e-7,-9.346287299649703e-9,-0.063036248087883,0.9980112314224243],"scale":[1,1.0000001192092896,1],"translation":[-2.229444362455979e-8,0.03554438054561615,1.3682466715181363e-7]},{"children":[11],"name":"pinky_03_l","rotation":[2.737212412284862e-7,-6.21395246369616e-9,-0.04723479598760605,0.998883843421936],"translation":[1.8684659153223038e-8,0.02701757289469242,1.210092079872993e-7]},{"children":[12],"name":"pinky_02_l","rotation":[-4.080663416061725e-7,-6.366663285461982e-8,0.06959806382656097,0.9975751042366028],"scale":[1,0.9999999403953552,1],"translation":[5.237779987510294e-9,0.03745940327644348,-4.2954411583195906e-8]},{"children":[13],"name":"pinky_01_l","rotation":[0.020232882350683212,0.7068200707435608,0.02023296058177948,0.7068144083023071],"scale":[1,1.0000001192092896,1.0000001192092896],"translation":[0.0033828546293079853,0.08637546747922897,-0.03721657767891884]},{"name":"ring_04_leaf_l","rotation":[1.513518270712666e-7,-3.983700480603147e-9,-0.027311569079756737,0.9996269941329956],"scale":[1,0.9999999403953552,1],"translation":[-1.4714714779984206e-8,0.03855038806796074,-2.7316502837493317e-8]},{"children":[15],"name":"ring_03_l","rotation":[-5.128872970772136e-8,1.3257456243920274e-9,0.009250660426914692,0.9999572038650513],"scale":[1,0.9999999403953552,1],"translation":[-3.5397533793002367e-9,0.03217708691954613,-2.3384902192447043e-7]},{"children":[16],"name":"ring_02_l","rotation":[2.5717513452150342e-8,-7.366027432453848e-8,-0.004251986742019653,0.9999909996986389],"scale":[0.9999999403953552,0.9999999403953552,1],"translation":[2.374144969508052e-8,0.026073358952999115,6.30502086096385e-8]},{"children":[17],"name":"ring_01_l","rotation":[0.02143729478120804,0.7067844867706299,0.021437382325530052,0.7067790031433105],"scale":[1,0.9999998211860657,0.9999998807907104],"translation":[0.0016834508860483766,0.08694592118263245,-0.016287192702293396]},{"name":"thumb_04_leaf_l","rotation":[-0.010251576080918312,0.007474895101040602,0.09588969498872757,0.9953111410140991],"scale":[1,0.9999998807907104,1],"translation":[1.421431079506874e-7,0.017822925001382828,1.30385160446167e-8]},{"children":[19],"name":"thumb_03_l","rotation":[-0.007072458975017071,0.04199159890413284,-0.00900068785995245,0.9990524053573608],"scale":[0.9999999403953552,0.9999999403953552,1],"translation":[-2.1187588572502136e-8,0.013870587572455406,2.60770320892334e-8]},{"children":[20],"name":"thumb_02_l","rotation":[0.059960704296827316,0.03770153969526291,0.043048061430454254,0.996559202671051],"scale":[0.9999999403953552,0.9999999403953552,0.9999999403953552],"translation":[-3.0314549803733826e-7,0.03183700516819954,2.2351741790771484e-8]},{"children":[21],"name":"thumb_01_l","rotation":[0.019082166254520416,0.9745578765869141,0.180617555975914,0.13133995234966278],"scale":[1,0.9999998807907104,0.9999999403953552],"translation":[0.017274824902415276,0.02432871423661709,0.03643427789211273]},{"children":[6,10,14,18,22],"name":"hand_l","rotation":[0.01635671965777874,-0.0012586892116814852,-0.029807837679982185,0.9994210600852966],"scale":[0.9999999403953552,0.9999998807907104,0.9999999403953552],"translation":[-4.088360583409667e-8,0.2888224422931671,-3.259629011154175e-9]},{"children":[23],"name":"lowerarm_l","rotation":[0.032506972551345825,-0.0003284456324763596,0.02931380830705166,0.9990414977073669],"scale":[1,1,0.9999998807907104],"translation":[2.816468622768298e-7,0.2821185886859894,-6.6356733441352844e-9]},{"children":[24],"name":"upperarm_l","rotation":[0.11831077933311462,0.6694242358207703,-0.2201641947031021,0.6995723843574524],"scale":[1,1.0000001192092896,1],"translation":[0.0019235415384173393,0.14330051839351654,-0.000685069418977946]},{"children":[25],"name":"clavicle_l","rotation":[-0.48287326097488403,-0.32388606667518616,-0.36048924922943115,0.7293687462806702],"scale":[1,1.0000001192092896,0.9999998211860657],"translation":[0.018799958750605583,0.10226579010486603,0.10439237207174301]},{"name":"index_04_leaf_r","rotation":[-2.961139387025469e-7,1.5368922801073381e-9,-0.05475424602627754,0.998499870300293],"scale":[1,1.0000001192092896,1],"translation":[-9.226823749486357e-9,0.022944115102291107,-4.1827618701972824e-8]},{"children":[27],"name":"index_03_r","rotation":[1.8294420556230762e-7,-9.415149770930498e-10,0.03382435441017151,0.9994277954101562],"translation":[3.2800016924738884e-8,0.03277260437607765,3.7258757856761804e-8]},{"children":[28],"name":"index_02_r","rotation":[3.2184803711032828e-9,2.1987339948736917e-8,0.000022390857338905334,1],"translation":[-2.9740476747974753e-9,0.03861778974533081,4.100783357330329e-8]},{"children":[29],"name":"index_01_r","rotation":[-0.023321017622947693,-0.7067247629165649,0.02332109585404396,0.7067194581031799],"scale":[1,0.9999998807907104,0.9999999403953552],"translation":[-0.0037836728151887655,0.08978897333145142,0.03540046885609627]},{"name":"middle_04_leaf_r","rotation":[-8.012927565914651e-8,2.702410517585463e-10,-0.014196631498634815,0.9998992085456848],"scale":[0.9999999403953552,1,1],"translation":[1.709850039333105e-9,0.03126887232065201,-3.128666037355288e-8]},{"children":[31],"name":"middle_03_r","rotation":[9.318657845369671e-8,-3.1477379036637387e-10,0.01651022396981716,0.9998637437820435],"scale":[0.9999999403953552,0.9999999403953552,1],"translation":[2.2199856175575405e-8,0.020577233284711838,-2.3168840357357112e-7]},{"children":[32],"name":"middle_02_r","rotation":[-2.5963925054384163e-7,2.3179726582611693e-8,-0.0461399219930172,0.9989349842071533],"translation":[-5.6088538258336484e-9,0.03230852633714676,2.9514706056943396e-7]},{"children":[33],"name":"middle_01_r","rotation":[-0.022490300238132477,-0.7067517638206482,0.022490384057164192,0.7067462801933289],"scale":[1,0.9999997615814209,0.9999999403953552],"translation":[-0.0013832254335284233,0.08280834555625916,0.012024563737213612]},{"name":"pinky_04_leaf_r","rotation":[3.557073569027125e-7,-1.6089989340883903e-9,0.06303625553846359,0.9980112314224243],"translation":[-5.729816621169448e-11,0.03554433211684227,-7.116483402569429e-9]},{"children":[35],"name":"pinky_03_r","rotation":[2.6640640271580196e-7,-1.2424277162637054e-9,0.047234803438186646,0.998883843421936],"translation":[-3.785316948778927e-9,0.027017440646886826,8.093064707281883e-8]},{"children":[36],"name":"pinky_02_r","rotation":[-4.022828932193079e-7,1.4466769471255247e-7,-0.06959807872772217,0.9975751042366028],"scale":[1.0000001192092896,1,1],"translation":[6.598384061362594e-9,0.037459421902894974,3.149062877128017e-7]},{"children":[37],"name":"pinky_01_r","rotation":[0.02023288607597351,-0.7068200707435608,-0.02023295871913433,0.7068144083023071],"scale":[1,1.0000001192092896,1.0000001192092896],"translation":[-0.0033829768653959036,0.08637538552284241,-0.03721656650304794]},{"name":"ring_04_leaf_r","rotation":[1.4760061617380416e-7,-9.570543246795182e-10,0.02731156349182129,0.9996269941329956],"scale":[1,0.9999999403953552,1],"translation":[7.261405698955059e-9,0.038550473749637604,7.424172565606568e-8]},{"children":[39],"name":"ring_03_r","rotation":[-4.998780767095923e-8,3.2566188634675086e-10,-0.009250659495592117,0.9999572038650513],"scale":[0.9999999403953552,0.9999999403953552,1],"translation":[-7.637027010787278e-9,0.03217705711722374,-1.0490595059309271e-8]},{"children":[40],"name":"ring_02_r","rotation":[2.1833187702213763e-8,1.4315504870410223e-7,0.004251993726938963,0.9999909996986389],"scale":[0.9999999403953552,1,1],"translation":[-1.6720150597393513e-8,0.02607337385416031,5.718865736525913e-8]},{"children":[41],"name":"ring_01_r","rotation":[0.02143731154501438,-0.7067844867706299,-0.0214373879134655,0.7067790031433105],"scale":[0.9999999403953552,0.9999997019767761,0.9999998807907104],"translation":[-0.0016835733549669385,0.08694589883089066,-0.016287196427583694]},{"name":"thumb_04_leaf_r","rotation":[-0.010251615196466446,-0.00747491791844368,-0.09588971734046936,0.9953111410140991],"scale":[0.9999999403953552,0.9999998807907104,0.9999999403953552],"translation":[-1.491280272603035e-7,0.01782306842505932,1.1175870895385742e-8]},{"children":[43],"name":"thumb_03_r","rotation":[-0.0070724585093557835,-0.04199161008000374,0.009000715799629688,0.9990524053573608],"translation":[-3.655441105365753e-8,0.013870450668036938,5.587935447692871e-9]},{"children":[44],"name":"thumb_02_r","rotation":[0.059960782527923584,-0.037701524794101715,-0.04304807633161545,0.996559202671051],"scale":[0.9999998807907104,0.9999999403953552,0.9999999403953552],"translation":[3.655441105365753e-8,0.031837064772844315,3.725290298461914e-9]},{"children":[45],"name":"thumb_01_r","rotation":[0.019082173705101013,-0.9745578169822693,-0.18061766028404236,0.13133996725082397],"scale":[1,1.0000001192092896,1],"translation":[-0.017274947836995125,0.024328680709004402,0.03643427789211273]},{"children":[30,34,38,42,46],"name":"hand_r","rotation":[0.016356725245714188,0.0012586849043145776,0.029807839542627335,0.9994210600852966],"scale":[0.9999999403953552,0.9999999403953552,1],"translation":[-8.577626431360841e-8,0.28882256150245667,9.313225746154785e-10]},{"children":[47],"name":"lowerarm_r","rotation":[0.03250700980424881,0.0003283398982603103,-0.02931380271911621,0.9990414977073669],"scale":[1,0.9999999403953552,0.9999999403953552],"translation":[-1.6870671970536932e-7,0.2821185886859894,-8.731149137020111e-11]},{"children":[48],"name":"upperarm_r","rotation":[0.11831075698137283,-0.6694241762161255,0.22016412019729614,0.6995725035667419],"translation":[-0.0019235452637076378,0.14330053329467773,-0.0006848105113022029]},{"children":[49],"name":"clavicle_r","rotation":[-0.4828732907772064,0.32388579845428467,0.3604891300201416,0.7293688654899597],"scale":[0.9999999403953552,0.9999998807907104,0.9999997615814209],"translation":[-0.018800009042024612,0.10226579010486603,0.10439235717058182]},{"children":[2,26,50],"name":"spine_03","rotation":[-0.10608621686697006,1.027853002710799e-7,-2.937579779427324e-8,0.9943569302558899],"scale":[1,1.0000001192092896,1],"translation":[5.382551331457441e-15,0.13319839537143707,-1.30385160446167e-8]},{"children":[51],"name":"spine_02","rotation":[-0.07552642375230789,-6.252925999206127e-8,-1.7842710420268304e-8,0.9971438050270081],"translation":[5.262865576010408e-15,0.12976327538490295,-5.587935447692871e-9]},{"children":[52],"name":"spine_01","rotation":[-0.06742119789123535,1.0391942595333603e-7,-1.3133419685118497e-8,0.9977245926856995],"translation":[1.7430239753434256e-15,0.10397334396839142,-2.421438694000244e-8]},{"name":"ball_leaf_l","rotation":[0.027500713244080544,4.34090203782489e-8,9.514938170696041e-9,0.9996218085289001],"scale":[1,0.9999998807907104,0.9999998807907104],"translation":[-2.797046505520484e-8,0.08628770709037781,7.369358456799091e-10]},{"children":[54],"name":"ball_l","rotation":[0.00011110481136711314,0.9767428040504456,-0.21441370248794556,0.0005056423833593726],"scale":[1,1.0000001192092896,1],"translation":[-1.7423190001863986e-8,0.18140825629234314,1.2951204553246498e-8]},{"children":[55],"name":"foot_l","rotation":[-0.5864481329917908,-0.00836553331464529,0.012051534838974476,0.8098539113998413],"scale":[0.9999999403953552,0.9999998807907104,0.9999999403953552],"translation":[4.391768015921116e-8,0.43339279294013977,1.8575519789010286e-8]},{"children":[56],"name":"calf_l","rotation":[0.06584951281547546,0.002282771747559309,-0.0041860309429466724,0.9978181719779968],"scale":[1,0.9999998211860657,0.9999998807907104],"translation":[-6.948539521545172e-9,0.3794097304344177,5.718902684748173e-9]},{"children":[57],"name":"thigh_l","rotation":[0.9934617877006531,0.010869033634662628,-0.0019382123136892915,0.11362989246845245],"scale":[1,0.9999998807907104,0.9999977350234985],"translation":[0.1021384447813034,-0.01966431550681591,0.053508076816797256]},{"name":"ball_leaf_r","rotation":[0.027500752359628677,-4.422287247507484e-8,-9.463446914992346e-9,0.9996218085289001],"scale":[1,0.9999998807907104,0.9999998807907104],"translation":[2.7930473933679423e-8,0.08628775179386139,1.9361952041663244e-9]},{"children":[59],"name":"ball_r","rotation":[0.0001111062738345936,-0.9767428636550903,0.21441349387168884,0.0005056423833593726],"scale":[1,1.000000238418579,0.9999998807907104],"translation":[1.7252204997930676e-8,0.18140831589698792,8.833012543618679e-9]},{"children":[60],"name":"foot_r","rotation":[-0.5864483714103699,0.008365537039935589,-0.012051538564264774,0.8098537921905518],"scale":[0.9999999403953552,0.9999999403953552,0.9999998807907104],"translation":[-2.759043127298355e-8,0.43339279294013977,6.4064806792885065e-9]},{"children":[61],"name":"calf_r","rotation":[0.06584953516721725,-0.002282776404172182,0.004186009056866169,0.9978181719779968],"scale":[1,0.9999999403953552,0.9999998807907104],"translation":[6.8885128712281585e-9,0.3794097304344177,4.2782630771398544e-9]},{"children":[62],"name":"thigh_r","rotation":[0.9934617877006531,-0.01086906623095274,0.0019382762257009745,0.11362989246845245],"scale":[1,1,0.9999971389770508],"translation":[-0.1021384447813034,-0.01966431364417076,0.05350806564092636]},{"children":[53,58,63],"name":"pelvis","rotation":[0.7904683351516724,2.7758709109093616e-8,3.5824129440698016e-8,0.612502932548523],"translation":[-3.1139009018766814e-16,0.05010020732879639,0.9374715685844421]},{"children":[64],"name":"root","rotation":[-0.7071067690849304,1.5197109121101014e-16,1.5197109121101014e-16,0.7071067690849304]},{"mesh":0,"name":"Character_21_Police","skin":0},{"children":[66,65],"name":"Armature_21"}],"materials":[{"name":"Horizon Browser Survivor","pbrMetallicRoughness":{"baseColorFactor":[0.1,0.13,0.14,1],"metallicFactor":0,"roughnessFactor":0.78},"doubleSided":false}],"meshes":[{"name":"Character_21_Police","primitives":[{"attributes":{"POSITION":0,"NORMAL":1,"TEXCOORD_0":2,"JOINTS_0":3,"WEIGHTS_0":4},"indices":5,"material":0}]}],"skins":[{"inverseBindMatrices":6,"joints":[65,64,53,52,51,2,1,0,26,25,24,23,6,5,4,3,10,9,8,7,14,13,12,11,18,17,16,15,22,21,20,19,50,49,48,47,30,29,28,27,34,33,32,31,38,37,36,35,42,41,40,39,46,45,44,43,58,57,56,55,54,63,62,61,60,59],"name":"Armature_21"}],"accessors":[{"bufferView":0,"componentType":5126,"count":737,"max":[0.9082676768302917,1.8125576972961426,0.17689651250839233],"min":[-0.9091466069221497,0.02879887819290161,-0.140996515750885],"type":"VEC3"},{"bufferView":1,"componentType":5126,"count":737,"type":"VEC3"},{"bufferView":2,"componentType":5126,"count":737,"type":"VEC2"},{"bufferView":3,"componentType":5121,"count":737,"type":"VEC4"},{"bufferView":4,"componentType":5126,"count":737,"type":"VEC4"},{"bufferView":5,"componentType":5123,"count":2688,"type":"SCALAR"},{"bufferView":7,"componentType":5126,"count":66,"type":"MAT4"}],"bufferViews":[{"buffer":0,"byteLength":8844,"byteOffset":0,"target":34962},{"buffer":0,"byteLength":8844,"byteOffset":8844,"target":34962},{"buffer":0,"byteLength":5896,"byteOffset":17688,"target":34962},{"buffer":0,"byteLength":2948,"byteOffset":23584,"target":34962},{"buffer":0,"byteLength":11792,"byteOffset":26532,"target":34962},{"buffer":0,"byteLength":5376,"byteOffset":38324,"target":34963},{"buffer":0,"byteLength":215720,"byteOffset":43700},{"buffer":0,"byteLength":4224,"byteOffset":259420}],"buffers":[{"byteLength":263644,"uri":"data:application/octet-stream;base64,"}],"extras":{"horizon_runtime_variant":true,"source_file":"swat_male.glb","license":"CC0","purpose":"same-origin browser skeletal survivor/hands"}}